<?xml version="1.0" encoding="UTF-8"?>
<!-- Generator: Adobe Illustrator 26.0.2, SVG Export Plug-In . SVG Version: 6.00 Build 0)  -->
<svg xmlns="http://www.w3.org/2000/svg" xmlns:xlink="http://www.w3.org/1999/xlink" version="1.1" id="Layer_1" x="0px" y="0px" viewBox="0 0 117.5 40" style="enable-background:new 0 0 117.5 40;" xml:space="preserve">
<style type="text/css">
	.st0{fill:#1BB1ED;}
</style>
<g>
	<g>
		<path class="st0" d="M34.7,8.5c-6.4,0-11,4.7-11,11.4c0,6.2,4.4,11.4,11.6,11.4c5.4,0,8.7-3.1,8.7-3.1l-2-4c0,0-2.8,2.4-6.2,2.4    c-3.2,0-6.1-2-6.5-5.7h14.9c0,0,0.1-1.4,0.1-2.1C44.3,13,40.9,8.5,34.7,8.5z M29.4,17.1c0.5-2.8,2.4-4.5,5.2-4.5    c2.4,0,4.2,1.6,4.3,4.5H29.4z M13.7,26.3c-4.4,0-7.2-3.3-7.2-7.2s2.7-7.1,7-7.1c3.6,0,6,2.5,6,2.5l2.5-3.9c0,0-2.8-3.4-8.8-3.4    c-7.6,0-12.5,5.5-12.5,12.1c0,6.7,4.9,12,12.5,12c6.2,0,9.5-3.7,9.5-3.7l-2.2-4.1C20.4,23.4,17.5,26.3,13.7,26.3z M65.1,0.5h-5.3    v4.8h5.3V0.5z M53.2,23.1V0.5h-5.3v23.4c0,6.2,3.7,7,6.7,7c0.9,0,1.7-0.1,1.7-0.1V26c0,0-0.4,0-0.8,0    C54.1,26.1,53.2,25.5,53.2,23.1z M106.7,8.7l0.8,1.3l0.6,1l-0.6,1l-0.9,1.4c3,0.7,5.3,3.4,5.3,6.7c0,0.6-0.1,1.2-0.2,1.7l0.7,1.3    l0.7,1.3h1.6h1c0.5-1.3,0.9-2.8,0.9-4.3C116.3,14.2,112.1,9.5,106.7,8.7z M110.6,23.8c-1.2,1.8-3.3,3-5.6,3c-2.3,0-4.4-1.2-5.6-3    l-2.6-0.2l-1.3,2.3l-0.1,0.2c2,3.2,5.6,5.3,9.6,5.3s7.5-2.1,9.6-5.3l-2.8,0.1L110.6,23.8z M96.8,21.9l1.6,0.1    c-0.2-0.6-0.3-1.3-0.3-2c0-3.6,2.8-6.5,6.3-6.8l1.5-2.2l-1.3-2.2l-0.1-0.1C98.5,9,93.6,14,93.6,20.1c0,1.5,0.3,2.9,0.8,4.2    l0.7-1.3l0.6-1L96.8,21.9z M84.9,10.6c0,0.3,0,0.6,0,0.6h-0.1c0,0-1.7-2.8-6.4-2.8c-6.2,0-9.6,4.9-9.6,10.8c0,6,3.5,11,9.7,11    c2.9,0,4.7-1,6-2.9h0.1c0,0-0.1,0.6-0.1,1.2v1.3c0,3.9-2.8,5.3-6.1,5.3c-3.3,0-6-1.4-6-1.4l-1.6,4.1c2.1,1.1,5,1.9,7.7,1.9    c5.6,0,11.4-2.8,11.4-10.3V9h-5V10.6z M79.7,25.7c-3.5,0-5.4-2.8-5.4-6.6c0-3.7,1.8-6,5.1-6c2.9,0,5.3,1.3,5.3,6.3    C84.7,24.2,82.3,25.7,79.7,25.7z M59.8,30.7h5.4V9h-5.4C59.8,9,59.8,30.7,59.8,30.7z"></path>
	</g>
</g>
</svg>
