<?xml version="1.0" encoding="UTF-8"?>
<svg xmlns="http://www.w3.org/2000/svg" xmlns:xlink="http://www.w3.org/1999/xlink" width="160px" height="27px" viewBox="0 0 160 27" version="1.1">
  <title>Global / Logo</title>
  <g id="Products" stroke="none" stroke-width="1" fill="none" fill-rule="evenodd">
    <g id="Formstack-1-0-Platform" transform="translate(-120.000000, -36.000000)" fill-rule="nonzero">
      <g id="Group" transform="translate(120.000000, 35.000000)">
        <path d="M39.8584607,12.15014 L37.4511041,12.15014 L37.4511041,10.0937993 L39.8584607,10.0937993 L39.8584607,8.27246905 C39.8584607,6.8623998 40.2741848,5.75100778 41.1056455,4.93825955 C41.9371062,4.12551132 43.0875984,3.71914331 44.5571568,3.71914331 C45.1759182,3.71914331 45.7608324,3.81706331 46.3119168,4.01290626 C46.8630012,4.2087492 47.3125633,4.48292521 47.6606166,4.83544252 L46.6164619,6.59802024 C46.1330545,6.16716573 45.5336384,5.95174173 44.8181955,5.95174173 C44.1800978,5.95174173 43.6725276,6.17206173 43.2954699,6.61270834 C42.9184122,7.053355 42.7298861,7.655563 42.7298861,8.41935051 L42.7298861,10.0937993 L46.8484963,10.0937993 L46.8484963,12.15014 L42.7298861,12.15014 L42.7298861,24.7819469 L39.8584607,24.7819469 L39.8584607,12.15014 Z M53.6868169,25.0757098 C51.463143,25.0757098 49.7132347,24.3951657 48.4370393,23.0340573 C47.1608439,21.6729488 46.5227557,19.8075727 46.5227557,17.4378731 C46.5227557,15.0681734 47.1608439,13.2027974 48.4370393,11.8416889 C49.7132347,10.4805804 51.463143,9.80003639 53.6868169,9.80003639 C55.9104909,9.80003639 57.6652331,10.4805804 58.951097,11.8416889 C60.2369605,13.2027974 60.8798824,15.0681734 60.8798824,17.4378731 C60.8798824,19.8075727 60.2369605,21.6729488 58.951097,23.0340573 C57.6652331,24.3951657 55.9104909,25.0757098 53.6868169,25.0757098 Z M53.6868169,22.8724877 C55.0210216,22.8724877 56.0748336,22.3877836 56.8482852,21.418361 C57.6217373,20.4489384 58.0084573,19.1221224 58.0084573,17.4378731 C58.0084573,15.7536237 57.6217373,14.4268077 56.8482852,13.4573851 C56.0748336,12.4879625 55.0210216,12.0032585 53.6868169,12.0032585 C52.3332765,12.0032585 51.279464,12.4879625 50.5253486,13.4573851 C49.7712332,14.4268077 49.3941811,15.7536237 49.3941811,17.4378731 C49.3941811,19.1221224 49.7712332,20.4489384 50.5253486,21.418361 C51.279464,22.3877836 52.3332765,22.8724877 53.6868169,22.8724877 Z M63.1355245,13.6777073 C63.1355245,12.0130423 63.1065206,10.8184182 63.0485118,10.0937993 L65.7459114,10.0937993 C65.8232565,10.8771711 65.8619286,11.7388671 65.8619286,12.6789133 L65.8619286,12.9726762 L65.9489413,12.9726762 C66.3356674,11.9738772 66.9495854,11.1954132 67.7907139,10.6372608 C68.631843,10.0791084 69.6228134,9.80003639 70.7636548,9.80003639 C71.0730352,9.80003639 71.3534072,9.82941239 71.6047793,9.88816525 L71.6047793,12.2382689 C71.4694249,12.1991003 71.1697171,12.1795163 70.7056459,12.1795163 C69.8548492,12.1795163 69.0669068,12.4292123 68.3417958,12.9286118 C67.6166849,13.4280113 67.0462728,14.1036594 66.6305423,14.9555761 C66.2148119,15.8074929 66.0069497,16.742629 66.0069497,17.7610123 L66.0069497,24.7819469 L63.1355245,24.7819469 L63.1355245,13.6777073 Z M73.0192964,13.8539651 C73.0192964,12.3655587 72.9709562,11.1121827 72.8742748,10.0937993 L75.4266529,10.0937993 C75.503998,10.8184182 75.54267,11.6801143 75.54267,12.6789133 L75.6296833,12.6789133 C75.9970726,11.79762 76.5916548,11.097492 77.4134476,10.5785082 C78.2352399,10.0595244 79.1682019,9.80003639 80.2123619,9.80003639 C81.2371856,9.80003639 82.1169736,10.0497324 82.8517532,10.5491319 C83.5865322,11.0485314 84.0796003,11.7486594 84.3309724,12.649537 C84.7370342,11.7682437 85.3509527,11.0730117 86.172745,10.5638201 C86.9945373,10.0546284 87.9178317,9.80003639 88.9426554,9.80003639 C90.5475679,9.80003639 91.799574,10.3239084 92.6987119,11.3716681 C93.5978493,12.4194279 94.0474115,13.863748 94.0474115,15.7046716 L94.0474115,24.7819469 L91.1759864,24.7819469 L91.1759864,15.9690583 C91.1759864,14.7548321 90.919784,13.8148 90.4073721,13.148934 C89.8949608,12.483068 89.1650266,12.15014 88.217548,12.15014 C87.2507331,12.15014 86.4627912,12.507548 85.8536979,13.2223748 C85.2446047,13.9372015 84.9400626,14.8625455 84.9400626,15.9984346 L84.9400626,24.7819469 L82.0976414,24.7819469 L82.0976414,16.0865635 C82.0976414,13.462268 81.1501769,12.15014 79.2552202,12.15014 C78.6364588,12.15014 78.0708805,12.326396 77.5584686,12.6789133 C77.0460573,13.0314306 76.6351672,13.5112386 76.3257862,14.1183517 C76.0164053,14.7254649 75.8617176,15.3815289 75.8617176,16.0865635 L75.8617176,24.7819469 L73.0192964,24.7819469 L73.0192964,13.8539651 Z M101.117767,25.0757098 C99.9769252,25.0757098 98.9521171,24.8407018 98.043311,24.3706787 C97.1345055,23.9006556 96.4964174,23.2739676 96.1290276,22.4905958 L97.9562983,21.2274151 C98.2850155,21.7366068 98.7297433,22.1380788 99.2904959,22.4318432 C99.8512485,22.7256077 100.460333,22.8724877 101.117767,22.8724877 C101.871882,22.8724877 102.495469,22.6570636 102.988544,22.2262092 C103.481619,21.7953547 103.728153,21.2470026 103.728153,20.5811367 C103.728153,20.0523607 103.534793,19.6166167 103.148068,19.2738915 C102.761342,18.9311663 102.045909,18.5639663 101.001749,18.1722804 C99.3194917,17.5259987 98.1351616,16.8650387 97.4487233,16.1893805 C96.7622849,15.5137224 96.4190708,14.6765063 96.4190708,13.6777073 C96.4190708,12.5026496 96.8783006,11.5626176 97.7967748,10.857583 C98.715249,10.1525484 99.9382511,9.80003639 101.465818,9.80003639 C102.451969,9.80003639 103.351094,10.0056684 104.163218,10.4169385 C104.975342,10.8282088 105.61343,11.4059368 106.077502,12.15014 L104.366248,13.4426969 C104.037531,12.9726739 103.626641,12.6152659 103.133565,12.3704622 C102.64049,12.1256585 102.094248,12.0032585 101.494822,12.0032585 C100.837389,12.0032585 100.300815,12.1501385 99.8850842,12.4439029 C99.4693537,12.7376673 99.2614915,13.1195554 99.2614915,13.5895784 C99.2614915,14.0791858 99.474188,14.4855538 99.8995861,14.8086947 C100.324985,15.1318356 101.156433,15.5382036 102.393956,16.0278109 C103.94086,16.6349241 105.02851,17.2665081 105.656939,17.922582 C106.285369,18.5786558 106.599579,19.4256638 106.599579,20.4636314 C106.599579,21.8541164 106.096843,22.9704044 105.091355,23.8125291 C104.085868,24.6546538 102.761352,25.0757098 101.117767,25.0757098 L101.117767,25.0757098 Z M114.192011,25.0757098 C112.838471,25.0757098 111.779824,24.6595498 111.016041,23.8272173 C110.252257,22.9948847 109.870371,21.8443247 109.870371,20.3755026 L109.870371,12.3263977 L107.259984,12.3263977 L107.259984,10.0937993 L109.870371,10.0937993 L109.870371,6.35015773 L112.741796,6.35015773 L112.741796,10.0937993 L116.889411,10.0937993 L116.889411,12.3263977 L112.741796,12.3263977 L112.741796,20.0229871 C112.741796,20.9826175 112.930322,21.6876415 113.30738,22.1380803 C113.684438,22.5885191 114.259684,22.8137351 115.033136,22.8137351 C115.806588,22.8137351 116.493016,22.6962311 117.092441,22.4612195 L117.266467,24.5469365 C116.551024,24.8994538 115.526216,25.0757098 114.192011,25.0757098 L114.192011,25.0757098 Z M123.698728,25.0757098 C122.751249,25.0757098 121.905299,24.8798698 121.160851,24.4881839 C120.416404,24.096498 119.836324,23.553042 119.420594,22.8577995 C119.004863,22.1625571 118.797001,21.374301 118.797001,20.4930077 C118.797001,19.0046014 119.357745,17.8638333 120.47925,17.0706694 C121.600756,16.2775055 123.195976,15.8809295 125.264959,15.8809295 L127.991364,15.8809295 L127.991364,15.146522 C127.991364,14.1673074 127.730327,13.4133233 127.208247,12.8845473 C126.686167,12.3557714 125.922395,12.0913874 124.916908,12.0913874 C124.046775,12.0913874 123.234662,12.2627474 122.480547,12.6054726 C121.726431,12.9481977 121.107679,13.4426937 120.624272,14.0889754 L119.26107,12.355774 C119.957177,11.5332337 120.803127,10.9016496 121.798946,10.461003 C122.794765,10.0203564 123.872748,9.80003639 125.032925,9.80003639 C126.889209,9.80003639 128.329742,10.2553644 129.354565,11.1660341 C130.379389,12.0767038 130.891793,13.3643518 130.891793,15.0290169 L130.891793,21.8443173 C130.891793,22.7256106 131.007809,23.7048106 131.239845,24.7819469 L128.716471,24.7819469 C128.523108,24.3119237 128.387756,23.6558597 128.310411,22.8137351 L128.252402,22.8137351 C127.150233,24.3217257 125.632357,25.0757098 123.698728,25.0757098 L123.698728,25.0757098 Z M124.249809,22.8137351 C125.293969,22.8137351 126.178591,22.5248711 126.903702,21.9471344 C127.628813,21.3693977 127.991364,20.6692697 127.991364,19.8467293 L127.991364,17.9078938 L125.148942,17.9078938 C124.008101,17.9078938 123.133147,18.1282138 122.524054,18.5688604 C121.91496,19.0095071 121.610418,19.6508831 121.610418,20.4930077 C121.610418,21.2176266 121.847284,21.7855627 122.321023,22.1968329 C122.794762,22.6081031 123.437685,22.8137351 124.249809,22.8137351 Z M140.079462,25.0757098 C137.894461,25.0757098 136.192892,24.4000617 134.974705,23.0487454 C133.756519,21.6974291 133.147435,19.827157 133.147435,17.4378731 C133.147435,15.0290048 133.756519,13.1538368 134.974705,11.8123126 C136.192892,10.4707884 137.894461,9.80003639 140.079462,9.80003639 C141.336321,9.80003639 142.443307,10.0448364 143.400454,10.5344438 C144.357601,11.0240511 145.10687,11.7290751 145.648287,12.649537 L143.937033,14.2064806 C143.530971,13.5406146 142.999231,13.0216386 142.341797,12.649537 C141.684363,12.2774354 140.968931,12.0913874 140.195479,12.0913874 C138.880611,12.0913874 137.855803,12.5614034 137.121024,13.5014495 C136.386245,14.4414957 136.01886,15.7536237 136.01886,17.4378731 C136.01886,19.1025381 136.386245,20.4097702 137.121024,21.3596085 C137.855803,22.3094468 138.880611,22.7843588 140.195479,22.7843588 C140.968931,22.7843588 141.684363,22.5983108 142.341797,22.2262092 C142.999231,21.8541076 143.530971,21.3351316 143.937033,20.6692655 L145.648287,22.2262092 C145.10687,23.146671 144.357601,23.851695 143.400454,24.3413024 C142.443307,24.8309098 141.336321,25.0757098 140.079462,25.0757098 L140.079462,25.0757098 Z M156.721235,24.7819469 L152.109552,17.5847546 L150.108255,19.5823426 L150.108255,24.7819469 L147.207825,24.7819469 L147.207825,3.67507886 L150.108255,3.67507886 L150.108255,16.0865635 L156.025132,10.0937993 L159.534652,10.0937993 L154.052839,15.6165428 L159.969716,24.7819469 L156.721235,24.7819469 Z" id="Type" fill="#15232B"></path>
        <path d="M22.4857098,1 C23.3638425,1 24.0757098,1.71186725 24.0757098,2.59 L24.0757098,26.1607886 C24.0757098,27.0389214 23.3638425,27.7507886 22.4857098,27.7507886 L1.59,27.7507886 C0.711867248,27.7507886 7.47145275e-14,27.0389214 7.46069873e-14,26.1607886 L7.46069873e-14,2.59 C7.4499447e-14,1.71186725 0.711867248,1 1.59,1 L22.4857098,1 Z M27.2858044,3.67507886 C27.729026,3.67507886 28.0883281,4.03438095 28.0883281,4.47760252 L28.0883281,24.2731861 C28.0883281,24.7164077 27.729026,25.0757098 27.2858044,25.0757098 L25.4132492,25.0757098 L25.4132492,3.67507886 L27.2858044,3.67507886 Z M31.2984227,6.35015773 C31.7416443,6.35015773 32.1009464,6.70945979 32.1009464,7.15268139 L32.1009464,21.5981073 C32.1009464,22.0413289 31.7416443,22.4006309 31.2984227,22.4006309 L29.4258675,22.4006309 L29.4258675,6.35015773 L31.2984227,6.35015773 Z" id="Combined-Shape" fill="#21B573"></path>
        <path d="M9.58225095,20.3525849 C9.61352001,20.3974567 9.63028391,20.4508347 9.63028391,20.5055268 L9.63028391,23.2241189 C9.63028391,23.3718595 9.51051655,23.4916268 9.36277603,23.4916268 L5.60813042,23.4916268 C5.46565604,23.4916268 5.35015773,23.3761285 5.35015773,23.2336541 L5.35015773,23.1153206 C5.35015773,23.0278292 5.39294202,22.9458671 5.46472371,22.8958457 L9.20983412,20.2860519 C9.33104678,20.2015844 9.49778348,20.2313723 9.58225095,20.3525849 Z M15.7534663,14.1078864 C15.9012068,14.1078864 16.0209742,14.2276538 16.0209742,14.3753943 C16.0209742,14.4634914 15.9775992,14.5459405 15.9049995,14.5958442 L5.76919886,21.5630098 C5.64744776,21.6466994 5.48090525,21.6158443 5.39721575,21.4940932 C5.36656569,21.4495036 5.35015773,21.3966678 5.35015773,21.3425599 L5.35015773,17.1992838 C5.35015773,17.11715 5.38788854,17.0395687 5.45249678,16.9888564 L9.05017282,14.1649669 C9.09728661,14.1279863 9.15544781,14.1078864 9.21534165,14.1078864 L15.7534663,14.1078864 Z M17.9629456,5.28012618 C18.1106862,5.28012618 18.2304535,5.39989354 18.2304535,5.54763407 C18.2304535,5.62889861 18.1935134,5.70575708 18.1300565,5.75652263 L5.78477647,15.6327466 C5.6694105,15.7250394 5.50106982,15.7063349 5.40877705,15.5909689 C5.37083094,15.5435363 5.35015773,15.4846015 5.35015773,15.4238581 L5.35015773,5.54763407 C5.35015773,5.39989354 5.46992509,5.28012618 5.61766562,5.28012618 L17.9629456,5.28012618 Z" id="Combined-Shape" fill="#FFFFFF"></path>
      </g>
    </g>
  </g>
</svg>
