<?xml version="1.0" encoding="UTF-8"?>
<svg xmlns="http://www.w3.org/2000/svg" width="770" height="555" viewBox="0 0 770 555" fill="none">
  <mask id="mask0_1301_594671" style="mask-type:alpha" maskUnits="userSpaceOnUse" x="0" y="0" width="770" height="555">
    <rect width="770" height="555" fill="#D9D9D9"></rect>
  </mask>
  <g mask="url(#mask0_1301_594671)">
    <rect x="165.984" y="395.797" width="89.8606" height="89.8606" fill="#F02E4A"></rect>
    <rect x="165.984" y="277.113" width="89.8606" height="89.8606" fill="#F02E4A"></rect>
    <rect x="165.984" y="158.43" width="89.8606" height="91.5561" fill="#F02E4A"></rect>
    <rect x="165.984" y="39.7456" width="89.8606" height="89.8606" fill="#F02E4A"></rect>
    <path d="M220.24 439.88L783.141 439.88" stroke="white"></path>
    <path d="M220.24 321.196L783.141 321.196" stroke="white"></path>
    <path d="M220.24 204.208L783.141 204.208" stroke="white"></path>
    <path d="M220.24 83.8281L783.141 83.8282" stroke="white"></path>
    <rect x="10" y="455.14" width="89.8606" height="89.8606" fill="#F02E4A"></rect>
    <rect x="10" y="336.456" width="89.8606" height="89.8606" fill="#F02E4A"></rect>
    <rect x="10" y="217.772" width="89.8606" height="91.5561" fill="#F02E4A"></rect>
    <rect x="10" y="99.0879" width="89.8606" height="89.8606" fill="#F02E4A"></rect>
    <path d="M64.2559 499.222L627.156 499.222" stroke="white"></path>
    <path d="M64.2559 380.538L627.156 380.538" stroke="white"></path>
    <path d="M64.2559 263.55L627.156 263.55" stroke="white"></path>
    <path d="M64.2559 143.17L627.156 143.17" stroke="white"></path>
    <rect x="607.141" y="10" width="689.318" height="527" fill="#F1F2F2"></rect>
    <rect x="607.141" y="10" width="689.318" height="16.4688" fill="black"></rect>
    <rect x="607.141" y="70" width="44" height="689" transform="rotate(-90 607.141 70)" fill="white"></rect>
    <g clip-path="url(#clip0_1301_594671)">
      <path d="M700.85 42.896C697.249 42.896 694.565 45.7789 694.565 49.6313C694.565 53.4147 697.249 56.2962 700.85 56.2962C704.474 56.2962 707.136 53.4132 707.136 49.6313C707.136 45.756 704.429 42.896 700.85 42.896ZM700.85 55.0062C697.965 55.0062 695.907 52.7453 695.907 49.6313C695.907 46.3788 697.965 44.1646 700.85 44.1646C703.713 44.1646 705.794 46.3788 705.794 49.6313C705.794 52.7453 703.713 55.0062 700.85 55.0062Z" fill="black"></path>
      <path d="M692.084 43.1499H690.786V55.9747H692.084V43.1499Z" fill="black"></path>
      <path d="M687.966 44.0267L686.982 43.1499L682.508 48.4781H682.15L677.655 43.1499L676.693 44.0267L681.256 49.3779V49.7696L676.693 55.0757L677.655 55.9747L682.15 50.6924H682.508L686.915 55.9747L687.899 55.1216L683.403 49.7696V49.3779L687.966 44.0267Z" fill="black"></path>
      <path d="M669.36 43.1497L664.574 55.9745H665.916L667.04 52.9338L667.873 52.2377H672.335L673.053 52.8619L674.189 55.9722H675.599L670.835 43.1475L669.36 43.1497ZM667.901 50.6077L669.899 45.2017H670.258L672.254 50.6633L671.981 50.9454H668.247L667.901 50.6077Z" fill="black"></path>
      <path d="M656.141 54.3833H655.783L651.601 43.1499H649.319V55.9747H650.616V45.2027H650.974L655.022 55.9747H656.901L660.86 45.2027H661.218V55.9747H662.515V43.1499H660.234L656.141 54.3833Z" fill="black"></path>
      <path d="M631.028 41L630.245 41.8072L632.75 44.368V46.5363L632.493 46.7785L628.948 43.1454L628.187 43.9296L631.71 47.5857L631.497 47.8278H629.417L626.913 45.2441L626.141 46.0402L628.97 48.9579H633.846V43.8837L631.028 41Z" fill="black"></path>
      <path d="M637.857 41L638.64 41.8072L636.135 44.368V46.5363L636.392 46.7785L639.937 43.1454L640.698 43.9296L637.175 47.5857L637.388 47.8278H639.468L641.972 45.2441L642.744 46.0402L639.915 48.9579H635.039V43.8837L637.857 41Z" fill="black"></path>
      <path d="M631.028 58.1537L630.245 57.3465L632.75 54.7857V52.6174L632.493 52.3752L628.948 56.0084L628.187 55.2241L631.71 51.568L631.497 51.3259H629.417L626.913 53.9096L626.141 53.1136L628.97 50.1958H633.846V55.27L631.028 58.1537Z" fill="black"></path>
      <path d="M637.857 58.1537L638.64 57.3465L636.135 54.7857V52.6174L636.392 52.3752L639.937 56.0084L640.698 55.2241L637.175 51.568L637.388 51.3259H639.468L641.972 53.9096L642.744 53.1136L639.915 50.1958H635.039V55.27L637.857 58.1537Z" fill="black"></path>
    </g>
    <rect x="607.141" y="537" width="467" height="51" transform="rotate(-90 607.141 537)" fill="black"></rect>
    <rect x="615.812" y="126.11" width="33.6601" height="33.6601" fill="#4D4D4D"></rect>
    <rect x="615.812" y="209.59" width="33.6601" height="33.6601" fill="#4D4D4D"></rect>
    <rect x="615.812" y="167.851" width="33.6601" height="33.6601" fill="#4D4D4D"></rect>
    <rect x="615.812" y="84.3735" width="33.6601" height="33.6601" fill="#4D4D4D"></rect>
    <rect x="615.812" y="251.327" width="33.6601" height="33.6601" fill="#4D4D4D"></rect>
    <path d="M638.701 270.48L639.674 269.514H641.673V266.799H639.674L638.701 265.834C638.664 265.736 638.623 265.637 638.58 265.544V264.174L639.994 262.77L638.06 260.85L636.647 262.254H635.239L635.028 262.168L634.003 261.153V259.181H631.268V261.153L630.213 262.201L630.114 262.244H628.621L627.218 260.85L625.282 262.77L626.681 264.164V265.682C626.681 265.695 626.671 265.709 626.665 265.723L625.593 266.799H623.608V269.516H625.593L626.674 270.591C626.68 270.604 626.685 270.619 626.69 270.631V272.15L625.287 273.544L627.221 275.464L628.62 274.072H630.113L630.238 274.123L631.27 275.149V277.134H634.003V275.149L635.002 274.157C635.08 274.126 635.158 274.095 635.236 274.059H636.644L638.06 275.462L639.995 273.542L638.581 272.137V270.769C638.624 270.674 638.664 270.578 638.701 270.48ZM632.666 271.873C631.925 271.873 631.202 271.655 630.587 271.246C629.971 270.838 629.491 270.257 629.208 269.578C628.925 268.899 628.851 268.151 628.995 267.43C629.14 266.709 629.496 266.047 630.019 265.527C630.543 265.007 631.21 264.653 631.936 264.51C632.661 264.366 633.414 264.44 634.098 264.721C634.781 265.003 635.366 265.479 635.777 266.09C636.188 266.702 636.408 267.42 636.408 268.156C636.407 269.141 636.012 270.087 635.31 270.783C634.608 271.48 633.656 271.872 632.664 271.873H632.666Z" fill="white"></path>
    <path d="M636.547 101.199V100.319C637.344 99.5368 637.89 98.5351 638.115 97.4418C638.34 96.3485 638.234 95.2131 637.81 94.1801C637.387 93.1471 636.666 92.2633 635.738 91.6412C634.81 91.0192 633.718 90.687 632.6 90.687C631.483 90.687 630.391 91.0192 629.463 91.6412C628.535 92.2633 627.814 93.1471 627.391 94.1801C626.967 95.2131 626.861 96.3485 627.086 97.4418C627.311 98.5351 627.857 99.5368 628.654 100.319V101.199L624.596 106.665V111.719H640.575V106.665L636.547 101.199ZM632.601 92.8689C633.247 92.8689 633.879 93.0602 634.416 93.4187C634.953 93.7773 635.372 94.2868 635.619 94.8831C635.866 95.4793 635.931 96.1353 635.805 96.7683C635.679 97.4013 635.368 97.9827 634.911 98.4391C634.455 98.8955 633.873 99.2064 633.239 99.3324C632.605 99.4585 631.948 99.394 631.351 99.1472C630.755 98.9003 630.244 98.4823 629.885 97.9458C629.526 97.4093 629.334 96.7785 629.334 96.1331C629.335 95.2678 629.679 94.4382 630.292 93.8262C630.904 93.2142 631.735 92.87 632.601 92.8689V92.8689ZM631.465 101.575H631.532V101.567H633.63V101.575H633.699L638.152 107.439V107.963L636.579 109.548H628.497L627.051 108.092V107.439L631.465 101.575Z" fill="white"></path>
    <path d="M624.708 133.404V152.479H640.577V133.404H624.708ZM637.323 150.563H627.814L626.618 149.365V136.362L627.664 135.315H637.516L638.667 136.467V149.145L637.323 150.563Z" fill="white"></path>
    <path d="M636.822 137.229H628.513V139.136H636.822V137.229Z" fill="white"></path>
    <path d="M636.822 140.406H628.513V142.313H636.822V140.406Z" fill="white"></path>
    <path d="M636.822 143.583H628.513V145.489H636.822V143.583Z" fill="white"></path>
    <path d="M636.822 146.761H628.513V148.667H636.822V146.761Z" fill="white"></path>
    <path d="M639.7 191.409V175.943H637.689V191.409H634.981V179.99H632.97V191.409H630.292V182.677H628.281V191.409H627.243L624.93 189.009V175.929H622.911V193.433H642.371V191.409H639.7Z" fill="white"></path>
    <path d="M627.571 222.27L628.472 221.351V218.467H636.777V221.351L637.766 222.27H641.928V234.371H623.355V222.27H627.571ZM626.439 232.46H638.693L640.004 231.157V225.376L638.799 224.177H626.333L625.28 225.225V231.304L626.439 232.46ZM630.396 220.379V221.349L631.303 222.268H633.968L634.892 221.349V220.379H630.396Z" fill="white"></path>
    <rect x="682" y="101" width="127" height="129" fill="white"></rect>
    <rect x="682" y="250" width="218" height="259" fill="white"></rect>
  </g>
  <defs>
    <clipPath id="clip0_1301_594671">
      <rect width="80.9961" height="17.1533" fill="white" transform="translate(626.141 41)"></rect>
    </clipPath>
  </defs>
</svg>
