<?xml version="1.0" encoding="UTF-8"?>
<svg xmlns="http://www.w3.org/2000/svg" width="471" height="557" viewBox="0 0 471 557" fill="none">
  <rect x="306.188" y="556.274" width="306.188" height="409.218" transform="rotate(180 306.188 556.274)" fill="black"></rect>
  <rect x="341.016" y="519.996" width="306.188" height="409.218" transform="rotate(180 341.016 519.996)" fill="#D9D9D9"></rect>
  <rect x="386" y="479.365" width="306.188" height="409.218" transform="rotate(180 386 479.365)" fill="white"></rect>
  <rect x="210.414" y="48.3798" width="62.9529" height="62.9529" fill="black"></rect>
  <path d="M256.126 5.83867L256.122 5.83584L245.345 1.01986V1.01702H245.338L243.061 0L240.784 1.01702H240.777V1.01986L227.826 6.80753V6.88686V8.39964V19.0685V20.4226L243.138 27.2783L258.3 20.4226V8.40248V6.8217V6.80753L256.126 5.83867ZM252.341 7.95487L245.312 11.0938H240.956L233.807 7.89821V7.0795L241.308 3.72814H244.818L252.344 7.09083V7.95487H252.341ZM232.632 10.5498L239.862 13.7794L241.348 15.5896V22.519L240.279 23.0459L232.753 19.6832L231.121 17.6945V11.2949L232.632 10.5498ZM245.843 23.0459L244.924 22.5926V15.4111L246.264 13.7822L253.494 10.5527L255.005 11.2977V17.6973L253.373 19.686L245.982 22.9836L245.843 23.0459Z" fill="#F1F2F2"></path>
  <path d="M210.676 400.411C210.676 401.907 211.732 402.933 213.113 402.933C214.547 402.933 215.342 402.039 215.426 400.805L214.501 400.766C214.431 401.491 214 402.085 213.113 402.085C212.249 402.085 211.678 401.437 211.678 400.411C211.678 399.386 212.249 398.738 213.113 398.738C214 398.738 214.431 399.332 214.501 400.057L215.426 400.018C215.342 398.792 214.547 397.89 213.113 397.89C211.732 397.89 210.676 398.915 210.676 400.411ZM216.938 401.021C216.938 400.45 217.231 400.08 217.701 400.08C218.156 400.08 218.365 400.38 218.365 400.905V402.841H219.29V400.72C219.29 399.964 218.958 399.347 218.048 399.347C217.539 399.347 217.107 399.609 216.938 399.995V397.982H216.012V402.841H216.938V401.021ZM220.767 401.144C220.767 400.496 221.06 400.049 221.623 400.049C222.193 400.049 222.486 400.496 222.486 401.144C222.486 401.784 222.193 402.231 221.623 402.231C221.06 402.231 220.767 401.784 220.767 401.144ZM223.42 401.144C223.42 400.087 222.679 399.347 221.623 399.347C220.574 399.347 219.834 400.087 219.834 401.144C219.834 402.2 220.574 402.933 221.623 402.933C222.679 402.933 223.42 402.2 223.42 401.144ZM224.758 401.144C224.758 400.496 225.051 400.049 225.614 400.049C226.185 400.049 226.478 400.496 226.478 401.144C226.478 401.784 226.185 402.231 225.614 402.231C225.051 402.231 224.758 401.784 224.758 401.144ZM227.411 401.144C227.411 400.087 226.671 399.347 225.614 399.347C224.565 399.347 223.825 400.087 223.825 401.144C223.825 402.2 224.565 402.933 225.614 402.933C226.671 402.933 227.411 402.2 227.411 401.144ZM227.755 401.715C227.817 402.548 228.496 402.933 229.382 402.933C230.262 402.933 230.863 402.548 230.863 401.853C230.863 401.213 230.439 400.913 229.722 400.797L229.074 400.689C228.827 400.65 228.704 400.542 228.704 400.357C228.704 400.126 228.92 399.979 229.251 399.979C229.737 399.979 229.999 400.172 230.061 400.558L230.825 400.527C230.763 399.771 230.2 399.347 229.259 399.347C228.395 399.347 227.848 399.794 227.848 400.442C227.848 401.075 228.249 401.344 228.974 401.46L229.514 401.553C229.853 401.607 230.007 401.707 230.007 401.938C230.007 402.185 229.729 402.301 229.39 402.301C228.92 402.301 228.611 402.093 228.557 401.684L227.755 401.715ZM233.942 401.653C233.811 402.039 233.541 402.231 233.086 402.231C232.585 402.231 232.192 401.877 232.161 401.375H234.713V401.044C234.713 400.118 234.143 399.347 233.032 399.347C232.014 399.347 231.251 400.118 231.251 401.19C231.251 402.262 232.007 402.933 233.055 402.933C233.927 402.933 234.513 402.486 234.69 401.73L233.942 401.653ZM232.176 400.797C232.261 400.373 232.516 400.026 233.025 400.026C233.541 400.026 233.78 400.404 233.811 400.797H232.176ZM237.68 400.38V398.761H238.629C239.354 398.761 239.67 399.054 239.67 399.578C239.67 400.103 239.354 400.38 238.629 400.38H237.68ZM237.68 401.167H238.66C239.901 401.167 240.611 400.581 240.611 399.571C240.611 398.56 239.901 397.982 238.66 397.982H236.724V402.841H237.68V401.167ZM241.114 397.982V402.841H242.039V397.982H241.114ZM244.859 401.368C244.859 401.915 244.489 402.285 244.003 402.285C243.71 402.285 243.533 402.147 243.533 401.915C243.533 401.576 243.818 401.506 244.219 401.422L244.859 401.283V401.368ZM245.762 400.658C245.762 399.764 245.183 399.347 244.304 399.347C243.402 399.347 242.87 399.833 242.754 400.527L243.595 400.604C243.672 400.273 243.88 400.041 244.266 400.041C244.659 400.041 244.859 400.273 244.859 400.65V400.728L243.926 400.913C243.155 401.067 242.631 401.337 242.631 401.985C242.631 402.571 243.063 402.925 243.772 402.925C244.273 402.925 244.736 402.717 244.929 402.324C245.014 402.694 245.261 402.918 245.646 402.918C245.955 402.918 246.14 402.817 246.286 402.702V402.208C246.186 402.254 246.093 402.278 246.001 402.278C245.854 402.278 245.762 402.193 245.762 402.015V400.658ZM247.65 401.021C247.65 400.45 247.943 400.08 248.413 400.08C248.868 400.08 249.077 400.38 249.077 400.905V402.841H250.002V400.72C250.002 399.964 249.67 399.347 248.76 399.347C248.251 399.347 247.82 399.609 247.65 399.995V399.44H246.724V402.841H247.65V401.021Z" fill="black"></path>
  <path d="M257.72 403.79L258.361 404.454L261.982 400.746L261.982 399.935L258.361 396.228L257.72 396.857L260.04 399.265L259.58 399.892L254.271 399.892L254.271 400.827L259.52 400.827L260.049 401.442L257.72 403.79Z" fill="black"></path>
  <rect x="181.71" y="382.458" width="102.392" height="35.6397" stroke="black" stroke-width="0.638496"></rect>
  <circle cx="142.396" cy="269.136" r="7.44049" fill="#D9D9D9"></circle>
  <circle cx="142.396" cy="306.865" r="7.44049" fill="#D9D9D9"></circle>
  <circle cx="142.396" cy="344.595" r="7.44049" fill="#D9D9D9"></circle>
  <rect x="163.25" y="266.049" width="165.429" height="5.80451" fill="#D9D9D9"></rect>
  <rect x="163.25" y="303.778" width="165.429" height="5.80451" fill="#D9D9D9"></rect>
  <rect x="163.25" y="341.508" width="165.429" height="5.80451" fill="#D9D9D9"></rect>
  <path d="M145.112 184.858V172.942H152.091C157.425 172.942 159.751 175.099 159.751 178.957C159.751 182.815 157.425 184.858 152.091 184.858H145.112ZM145.112 190.646H152.318C161.454 190.646 166.674 186.333 166.674 178.9C166.674 171.467 161.454 167.211 152.318 167.211H138.076V202.959H145.112V190.646ZM187.682 178.276C186.944 177.652 185.696 177.255 184.164 177.255C180.703 177.255 178.093 179.865 177.185 182.702V177.936H170.376V202.959H177.185V190.589C177.185 186.05 179.568 183.553 183.086 183.553C184.731 183.553 185.866 183.893 187.171 184.631L187.682 178.276ZM208.596 194.221C207.632 197.058 205.646 198.476 202.298 198.476C198.61 198.476 195.716 195.866 195.489 192.178H214.27V189.738C214.27 182.929 210.071 177.255 201.901 177.255C194.411 177.255 188.793 182.929 188.793 190.816C188.793 198.703 194.354 203.64 202.071 203.64C208.483 203.64 212.795 200.349 214.1 194.788L208.596 194.221ZM195.602 187.922C196.226 184.801 198.099 182.248 201.844 182.248C205.646 182.248 207.405 185.028 207.632 187.922H195.602ZM241.336 182.418C240.258 179.354 237.761 177.255 233.336 177.255C229.534 177.255 226.697 179.184 225.449 182.021V177.936H218.639V202.959H225.449V189.568C225.449 185.369 227.434 182.645 230.725 182.645C234.017 182.645 235.265 184.858 235.265 188.717V202.959H242.074V189.568C242.074 185.369 244.06 182.645 247.351 182.645C250.699 182.645 251.89 184.858 251.89 188.717V202.959H258.699V187.355C258.699 181.908 256.543 177.255 249.791 177.255C245.705 177.255 242.698 179.468 241.336 182.418ZM264.133 177.936V202.959H270.942V177.936H264.133ZM264.019 173.85H270.998V167.211H264.019V173.85ZM293.338 191.327C293.338 195.582 291.295 198.306 287.947 198.306C284.6 198.306 283.181 196.036 283.181 192.235V177.936H276.372V193.596C276.372 199.157 278.642 203.64 285.281 203.64C289.082 203.64 292.033 201.767 293.338 198.873V202.959H300.147V177.936H293.338V191.327ZM328.61 182.418C327.532 179.354 325.035 177.255 320.609 177.255C316.808 177.255 313.971 179.184 312.722 182.021V177.936H305.913V202.959H312.722V189.568C312.722 185.369 314.708 182.645 317.999 182.645C321.29 182.645 322.539 184.858 322.539 188.717V202.959H329.348V189.568C329.348 185.369 331.334 182.645 334.625 182.645C337.972 182.645 339.164 184.858 339.164 188.717V202.959H345.973V187.355C345.973 181.908 343.817 177.255 337.065 177.255C332.979 177.255 329.972 179.468 328.61 182.418Z" fill="black"></path>
  <rect x="416" y="121.382" width="52.9836" height="29.8033" rx="14.9016" fill="#D9D9D9"></rect>
  <rect x="418.648" y="122.706" width="47.6852" height="27.1541" rx="13.5771" fill="black" fill-opacity="0.5"></rect>
  <circle cx="433.662" cy="135.953" r="15.2328" fill="#A7A7A7"></circle>
  <rect x="416" y="80.0414" width="52.9836" height="29.8033" rx="14.9016" fill="#D9D9D9"></rect>
  <rect x="418.648" y="81.3654" width="47.6852" height="27.1541" rx="13.5771" fill="#620093"></rect>
  <circle cx="455.077" cy="94.6124" r="15.2328" fill="#A7A7A7"></circle>
  <rect x="416" y="165.154" width="52.9836" height="29.8033" rx="14.9016" fill="#D9D9D9"></rect>
  <rect x="418.648" y="166.478" width="47.6852" height="27.1541" rx="13.5771" fill="#620093"></rect>
  <circle cx="455.077" cy="179.725" r="15.2328" fill="#A7A7A7"></circle>
  <path d="M255.299 70.1447L255.296 70.1409L244.519 63.736V63.7322H244.512L242.235 62.3796L239.958 63.7322H239.951V63.736L227 71.4332V71.5387V73.5506V87.7393V89.5402L242.312 98.6578L257.474 89.5402V73.5543V71.452V71.4332L255.299 70.1447ZM251.514 72.9591L244.486 77.1335H240.13L232.981 72.8837V71.7949L240.482 67.3378H243.992L251.518 71.8099V72.9591H251.514ZM231.806 76.4102L239.036 80.7052L240.522 83.1127V92.3283L239.453 93.029L231.927 88.5569L230.294 85.912V77.401L231.806 76.4102ZM245.017 93.029L244.098 92.4262V82.8754L245.438 80.709L252.667 76.4139L254.179 77.4048V85.9158L252.547 88.5607L245.156 92.9462L245.017 93.029Z" fill="#F1F2F2"></path>
</svg>
