<?xml version="1.0" encoding="UTF-8"?>
<svg xmlns="http://www.w3.org/2000/svg" width="461" height="469" viewBox="0 0 461 469" fill="none">
  <path d="M20 20H461V469H20V20Z" fill="#F1F2F2"></path>
  <path d="M314.984 42.7281V54H317.221V42.7281H314.984ZM321.167 49.7775C321.167 48.4535 321.847 47.5947 322.938 47.5947C323.994 47.5947 324.477 48.2925 324.477 49.5091V54H326.624V49.0797C326.624 47.3263 325.855 45.8949 323.743 45.8949C322.563 45.8949 321.561 46.5033 321.167 47.3979V46.1097H319.02V54H321.167V49.7775ZM332.758 54L335.871 46.1097H333.778L331.702 51.6204H331.631L329.538 46.1097H327.283L330.396 54H332.758ZM338.265 50.0638C338.265 48.5608 338.945 47.5231 340.251 47.5231C341.575 47.5231 342.255 48.5608 342.255 50.0638C342.255 51.5488 341.575 52.5865 340.251 52.5865C338.945 52.5865 338.265 51.5488 338.265 50.0638ZM344.42 50.0638C344.42 47.6126 342.702 45.8949 340.251 45.8949C337.818 45.8949 336.1 47.6126 336.1 50.0638C336.1 52.515 337.818 54.2147 340.251 54.2147C342.702 54.2147 344.42 52.515 344.42 50.0638ZM345.652 46.1097V54H347.799V46.1097H345.652ZM345.616 44.8214H347.817V42.7281H345.616V44.8214ZM349.015 50.0638C349.015 52.5686 350.75 54.2147 353.184 54.2147C355.528 54.2147 356.816 52.676 356.995 50.7795L355.188 50.6184C355.027 51.8172 354.365 52.5686 353.184 52.5686C352.003 52.5686 351.18 51.6919 351.18 50.0638C351.18 48.4177 352.003 47.541 353.184 47.541C354.365 47.541 355.027 48.2746 355.188 49.4554L356.995 49.3302C356.816 47.4337 355.528 45.8949 353.184 45.8949C350.75 45.8949 349.015 47.5589 349.015 50.0638ZM364.049 51.2446C363.745 52.1392 363.119 52.5865 362.063 52.5865C360.9 52.5865 359.988 51.7635 359.916 50.6005H365.839V49.8312C365.839 47.6841 364.515 45.8949 361.938 45.8949C359.576 45.8949 357.805 47.6841 357.805 50.1711C357.805 52.6581 359.558 54.2147 361.992 54.2147C364.014 54.2147 365.373 53.177 365.785 51.4236L364.049 51.2446ZM359.952 49.2586C360.149 48.2746 360.739 47.4694 361.92 47.4694C363.119 47.4694 363.674 48.3461 363.745 49.2586H359.952Z" fill="black"></path>
  <path d="M61.81 94.27C61.81 93.37 61.22 92.87 60.46 92.73C61.14 92.62 61.62 92.12 61.62 91.41C61.62 90.38 60.94 89.7 59.35 89.7H56.55V96H59.51C60.98 96 61.81 95.36 61.81 94.27ZM59.37 93.27C60.15 93.27 60.53 93.61 60.53 94.14C60.53 94.66 60.15 94.99 59.37 94.99H57.77V93.27H59.37ZM57.77 90.71H59.27C60.02 90.71 60.34 91.05 60.34 91.52C60.34 91.99 60.02 92.32 59.27 92.32H57.77V90.71ZM62.4926 91.59V96H63.6926V91.59H62.4926ZM62.4726 90.87H63.7026V89.7H62.4726V90.87ZM64.5787 89.7V96H65.7787V89.7H64.5787ZM66.6648 89.7V96H67.8648V89.7H66.6648ZM73.6268 96V90.74H75.8868V89.7H70.1468V90.74H72.3768V96H73.6268ZM76.5195 93.8C76.5195 92.96 76.8995 92.38 77.6295 92.38C78.3695 92.38 78.7495 92.96 78.7495 93.8C78.7495 94.63 78.3695 95.21 77.6295 95.21C76.8995 95.21 76.5195 94.63 76.5195 93.8ZM79.9595 93.8C79.9595 92.43 78.9995 91.47 77.6295 91.47C76.2695 91.47 75.3095 92.43 75.3095 93.8C75.3095 95.17 76.2695 96.12 77.6295 96.12C78.9995 96.12 79.9595 95.17 79.9595 93.8ZM80.4055 96H81.7455V94.66H80.4055V96ZM80.4055 93.07H81.7455V91.73H80.4055V93.07ZM60.384 105C60.216 104.816 60.192 104.512 60.128 103.776C60.08 103.184 59.784 102.784 59.144 102.664C59.76 102.592 60.304 102.2 60.304 101.416C60.304 100.544 59.696 99.96 58.424 99.96H56.52V105H57.016V102.872H58.584C59.336 102.872 59.6 103.312 59.632 103.864C59.672 104.48 59.744 104.864 59.84 105H60.384ZM57.016 102.456V100.384H58.44C59.376 100.384 59.784 100.792 59.784 101.416C59.784 102.088 59.376 102.456 58.44 102.456H57.016ZM61.3422 103.264C61.3422 102.416 61.7902 101.816 62.5662 101.816C63.3502 101.816 63.7982 102.416 63.7982 103.264C63.7982 104.112 63.3502 104.712 62.5662 104.712C61.7902 104.712 61.3422 104.112 61.3422 103.264ZM64.3102 103.264C64.3102 102.184 63.5582 101.432 62.5662 101.432C61.5822 101.432 60.8302 102.184 60.8302 103.264C60.8302 104.344 61.5822 105.096 62.5662 105.096C63.5582 105.096 64.3102 104.344 64.3102 103.264ZM65.3898 103.144C65.3898 102.312 65.9338 101.832 66.6218 101.832C67.3578 101.832 67.7818 102.384 67.7818 103.264C67.7818 104.144 67.3578 104.696 66.6218 104.696C65.9338 104.696 65.3898 104.216 65.3898 103.384V103.144ZM65.4058 104.24C65.5578 104.68 66.0138 105.096 66.6858 105.096C67.7178 105.096 68.2938 104.288 68.2938 103.264C68.2938 102.24 67.7178 101.432 66.6858 101.432C66.0138 101.432 65.5578 101.856 65.4058 102.296V99.96H64.9178V105H65.2858L65.4058 104.24ZM71.6259 103.76C71.4819 104.376 71.0899 104.696 70.4499 104.696C69.7619 104.696 69.2259 104.152 69.1939 103.384H72.0499V103.16C72.0499 102.216 71.5059 101.432 70.4179 101.432C69.4339 101.432 68.6899 102.216 68.6899 103.312C68.6899 104.384 69.4419 105.096 70.4499 105.096C71.2979 105.096 71.8739 104.608 72.0419 103.816L71.6259 103.76ZM69.2019 103.04C69.2819 102.392 69.7299 101.816 70.4179 101.816C71.1539 101.816 71.5139 102.4 71.5299 103.04H69.2019ZM74.6443 101.592C74.5163 101.48 74.3643 101.432 74.1483 101.432C73.6363 101.432 73.2843 101.856 73.1483 102.256V101.528H72.6603V105H73.1483V103.096C73.1483 102.4 73.5563 101.88 74.0603 101.88C74.2683 101.88 74.3883 101.912 74.5883 102.016L74.6443 101.592ZM75.2453 104.232C75.2453 104.864 75.5413 105.096 76.0053 105.096C76.3573 105.096 76.6053 105 76.8533 104.808V104.464C76.6533 104.584 76.4133 104.704 76.1733 104.704C75.8533 104.704 75.7253 104.552 75.7253 104.24V101.888H76.7333V101.528H75.7253V100.56H75.4773L75.3733 101.056C75.3013 101.392 75.2373 101.544 74.9173 101.608L74.7093 101.648V101.888H75.2453V104.232ZM79.1931 104.576V100.384H80.4411C81.7691 100.384 82.4811 101.168 82.4811 102.48C82.4811 103.792 81.7691 104.576 80.4411 104.576H79.1931ZM78.6891 105H80.4651C82.0251 105 83.0091 104.056 83.0091 102.48C83.0091 100.904 82.0251 99.96 80.4651 99.96H78.6891V105ZM84.6133 106.36L86.6133 101.528H86.1333L84.9813 104.384H84.9493L83.7573 101.528H83.2453L84.7173 104.976L84.1333 106.36H84.6133ZM87.0556 99.96V105H87.5436V99.96H87.0556ZM90.588 103.424C90.588 104.2 90.068 104.72 89.388 104.72C88.932 104.72 88.716 104.448 88.716 104.12C88.716 103.656 89.108 103.528 89.74 103.392L90.588 103.208V103.424ZM91.052 102.744C91.052 101.888 90.588 101.432 89.724 101.432C88.972 101.432 88.46 101.888 88.324 102.512L88.74 102.592C88.86 102.144 89.172 101.816 89.732 101.816C90.276 101.816 90.588 102.144 90.588 102.672V102.848L89.66 103.04C88.796 103.216 88.22 103.48 88.22 104.136C88.22 104.736 88.652 105.096 89.3 105.096C89.892 105.096 90.404 104.744 90.588 104.336C90.604 104.776 90.852 105.072 91.196 105.072C91.436 105.072 91.548 104.984 91.652 104.864V104.6C91.556 104.656 91.42 104.688 91.34 104.688C91.164 104.688 91.052 104.6 91.052 104.416V102.744ZM92.5674 102.92C92.5674 102.248 93.0554 101.816 93.6074 101.816C94.1994 101.816 94.5194 102.216 94.5194 102.832V105H95.0074V102.848C95.0074 102.016 94.6314 101.432 93.7354 101.432C93.2154 101.432 92.7354 101.744 92.5674 102.168V101.528H92.0794V105H92.5674V102.92ZM58.328 109.264C59.088 109.264 59.456 109.728 59.56 110.392L60.048 110.368C59.968 109.44 59.304 108.864 58.328 108.864C56.928 108.864 56.28 110.008 56.28 111.6C56.28 113.12 56.976 114.096 58.296 114.096C59.424 114.096 60.104 113.368 60.104 112.344C60.104 111.336 59.416 110.616 58.328 110.616C57.424 110.616 56.888 111.144 56.728 111.808C56.696 110.328 57.176 109.264 58.328 109.264ZM56.92 112.36C56.92 111.56 57.408 111.048 58.264 111.048C59.12 111.048 59.608 111.56 59.608 112.36C59.608 113.152 59.12 113.68 58.296 113.68C57.448 113.68 56.92 113.152 56.92 112.36ZM60.3106 110.008H61.2546V114H61.7586V108.92H61.4786C61.2946 109.448 61.0146 109.688 60.3106 109.688V110.008ZM64.6221 113.576V109.384H65.8701C67.1981 109.384 67.9101 110.168 67.9101 111.48C67.9101 112.792 67.1981 113.576 65.8701 113.576H64.6221ZM64.1181 114H65.8941C67.4541 114 68.4381 113.056 68.4381 111.48C68.4381 109.904 67.4541 108.96 65.8941 108.96H64.1181V114ZM71.8174 112.76C71.6734 113.376 71.2814 113.696 70.6414 113.696C69.9534 113.696 69.4174 113.152 69.3854 112.384H72.2414V112.16C72.2414 111.216 71.6974 110.432 70.6094 110.432C69.6254 110.432 68.8814 111.216 68.8814 112.312C68.8814 113.384 69.6334 114.096 70.6414 114.096C71.4894 114.096 72.0654 113.608 72.2334 112.816L71.8174 112.76ZM69.3934 112.04C69.4734 111.392 69.9214 110.816 70.6094 110.816C71.3454 110.816 71.7054 111.4 71.7214 112.04H69.3934ZM72.6429 112.824C72.6989 113.68 73.3469 114.096 74.1869 114.096C74.9469 114.096 75.5549 113.736 75.5549 113.056C75.5549 112.44 75.1549 112.2 74.4749 112.088L73.8349 111.984C73.4029 111.912 73.2029 111.744 73.2029 111.408C73.2029 111.04 73.5309 110.816 74.0269 110.816C74.6669 110.816 75.0349 111.088 75.1229 111.712L75.4989 111.68C75.4429 110.856 74.9229 110.432 74.0269 110.432C73.2669 110.432 72.7469 110.84 72.7469 111.464C72.7469 112.024 73.1229 112.304 73.7309 112.408L74.3309 112.512C74.8189 112.6 75.0909 112.72 75.0909 113.104C75.0909 113.512 74.7149 113.712 74.1789 113.712C73.5149 113.712 73.1069 113.376 73.0349 112.776L72.6429 112.824ZM76.4719 112.264C76.4719 111.416 76.9199 110.816 77.6959 110.816C78.4799 110.816 78.9279 111.416 78.9279 112.264C78.9279 113.112 78.4799 113.712 77.6959 113.712C76.9199 113.712 76.4719 113.112 76.4719 112.264ZM79.4399 112.264C79.4399 111.184 78.6879 110.432 77.6959 110.432C76.7119 110.432 75.9599 111.184 75.9599 112.264C75.9599 113.344 76.7119 114.096 77.6959 114.096C78.6879 114.096 79.4399 113.344 79.4399 112.264ZM80.0475 108.96V114H80.5355V108.96H80.0475ZM83.5799 112.424C83.5799 113.2 83.0599 113.72 82.3799 113.72C81.9239 113.72 81.7079 113.448 81.7079 113.12C81.7079 112.656 82.0999 112.528 82.7319 112.392L83.5799 112.208V112.424ZM84.0439 111.744C84.0439 110.888 83.5799 110.432 82.7159 110.432C81.9639 110.432 81.4519 110.888 81.3159 111.512L81.7319 111.592C81.8519 111.144 82.1639 110.816 82.7239 110.816C83.2679 110.816 83.5799 111.144 83.5799 111.672V111.848L82.6519 112.04C81.7879 112.216 81.2119 112.48 81.2119 113.136C81.2119 113.736 81.6439 114.096 82.2919 114.096C82.8839 114.096 83.3959 113.744 83.5799 113.336C83.5959 113.776 83.8439 114.072 84.1879 114.072C84.4279 114.072 84.5399 113.984 84.6439 113.864V113.6C84.5479 113.656 84.4119 113.688 84.3319 113.688C84.1559 113.688 84.0439 113.6 84.0439 113.416V111.744ZM85.1522 113.232C85.1522 113.864 85.4482 114.096 85.9122 114.096C86.2642 114.096 86.5122 114 86.7602 113.808V113.464C86.5602 113.584 86.3202 113.704 86.0802 113.704C85.7602 113.704 85.6322 113.552 85.6322 113.24V110.888H86.6402V110.528H85.6322V109.56H85.3842L85.2802 110.056C85.2082 110.392 85.1442 110.544 84.8242 110.608L84.6162 110.648V110.888H85.1522V113.232ZM87.2394 110.528V114H87.7274V110.528H87.2394ZM87.2234 109.608H87.7434V108.96H87.2234V109.608ZM88.8437 112.264C88.8437 111.416 89.2917 110.816 90.0677 110.816C90.8517 110.816 91.2997 111.416 91.2997 112.264C91.2997 113.112 90.8517 113.712 90.0677 113.712C89.2917 113.712 88.8437 113.112 88.8437 112.264ZM91.8117 112.264C91.8117 111.184 91.0597 110.432 90.0677 110.432C89.0837 110.432 88.3317 111.184 88.3317 112.264C88.3317 113.344 89.0837 114.096 90.0677 114.096C91.0597 114.096 91.8117 113.344 91.8117 112.264ZM92.9074 111.92C92.9074 111.248 93.3954 110.816 93.9474 110.816C94.5394 110.816 94.8594 111.216 94.8594 111.832V114H95.3474V111.848C95.3474 111.016 94.9714 110.432 94.0754 110.432C93.5554 110.432 93.0754 110.744 92.9074 111.168V110.528H92.4194V114H92.9074V111.92ZM101.371 114C101.203 113.816 101.179 113.512 101.115 112.776C101.067 112.184 100.771 111.784 100.131 111.664C100.747 111.592 101.291 111.2 101.291 110.416C101.291 109.544 100.683 108.96 99.4106 108.96H97.5066V114H98.0026V111.872H99.5706C100.323 111.872 100.587 112.312 100.619 112.864C100.659 113.48 100.731 113.864 100.827 114H101.371ZM98.0026 111.456V109.384H99.4266C100.363 109.384 100.771 109.792 100.771 110.416C100.771 111.088 100.363 111.456 99.4266 111.456H98.0026ZM102.329 112.264C102.329 111.416 102.777 110.816 103.553 110.816C104.337 110.816 104.785 111.416 104.785 112.264C104.785 113.112 104.337 113.712 103.553 113.712C102.777 113.712 102.329 113.112 102.329 112.264ZM105.297 112.264C105.297 111.184 104.545 110.432 103.553 110.432C102.569 110.432 101.817 111.184 101.817 112.264C101.817 113.344 102.569 114.096 103.553 114.096C104.545 114.096 105.297 113.344 105.297 112.264ZM108.12 110.528H107.696L106.896 113.344H106.864L105.992 110.528H105.504L106.616 114H107.08L107.88 111.232H107.912L108.72 114H109.184L110.288 110.528H109.824L108.968 113.344H108.936L108.12 110.528ZM57.08 117.96H56.52V123H57V118.656L60.136 123H60.536V117.96H60.056V122.112L57.08 117.96ZM64.1177 121.76C63.9737 122.376 63.5817 122.696 62.9417 122.696C62.2537 122.696 61.7177 122.152 61.6857 121.384H64.5417V121.16C64.5417 120.216 63.9977 119.432 62.9097 119.432C61.9257 119.432 61.1817 120.216 61.1817 121.312C61.1817 122.384 61.9337 123.096 62.9417 123.096C63.7897 123.096 64.3657 122.608 64.5337 121.816L64.1177 121.76ZM61.6937 121.04C61.7737 120.392 62.2217 119.816 62.9097 119.816C63.6457 119.816 64.0057 120.4 64.0217 121.04H61.6937ZM67.3682 119.528H66.9442L66.1442 122.344H66.1122L65.2402 119.528H64.7522L65.8642 123H66.3282L67.1282 120.232H67.1602L67.9682 123H68.4322L69.5362 119.528H69.0722L68.2162 122.344H68.1842L67.3682 119.528ZM73.1811 120.544L71.4851 117.96H70.9331L72.9091 121.008V123H73.3891V121.008L75.3651 117.96H74.8291L73.1811 120.544ZM75.4834 121.264C75.4834 120.416 75.9314 119.816 76.7074 119.816C77.4914 119.816 77.9394 120.416 77.9394 121.264C77.9394 122.112 77.4914 122.712 76.7074 122.712C75.9314 122.712 75.4834 122.112 75.4834 121.264ZM78.4514 121.264C78.4514 120.184 77.6994 119.432 76.7074 119.432C75.7234 119.432 74.9714 120.184 74.9714 121.264C74.9714 122.344 75.7234 123.096 76.7074 123.096C77.6994 123.096 78.4514 122.344 78.4514 121.264ZM81.0431 119.592C80.9151 119.48 80.7631 119.432 80.5471 119.432C80.0351 119.432 79.6831 119.856 79.5471 120.256V119.528H79.0591V123H79.5471V121.096C79.5471 120.4 79.9551 119.88 80.4591 119.88C80.6671 119.88 80.7871 119.912 80.9871 120.016L81.0431 119.592ZM81.9339 121.696L82.4779 121.24L83.9739 123H84.5659L82.8379 120.968L84.4859 119.528H83.8459L81.9339 121.208V117.96H81.4459V123H81.9339V121.696ZM86.1212 120.48C86.1212 122.032 87.1932 123.096 88.5692 123.096C89.9772 123.096 90.7932 122.232 90.8812 120.928L90.3932 120.904C90.3452 121.928 89.6812 122.672 88.5692 122.672C87.4652 122.672 86.6492 121.832 86.6492 120.48C86.6492 119.128 87.4652 118.288 88.5692 118.288C89.6812 118.288 90.3452 119.032 90.3932 120.056L90.8812 120.032C90.7932 118.728 89.9772 117.864 88.5692 117.864C87.1932 117.864 86.1212 118.928 86.1212 120.48ZM91.5206 119.528V123H92.0086V119.528H91.5206ZM91.5046 118.608H92.0246V117.96H91.5046V118.608ZM92.965 122.232C92.965 122.864 93.261 123.096 93.725 123.096C94.077 123.096 94.325 123 94.573 122.808V122.464C94.373 122.584 94.133 122.704 93.893 122.704C93.573 122.704 93.445 122.552 93.445 122.24V119.888H94.453V119.528H93.445V118.56H93.197L93.093 119.056C93.021 119.392 92.957 119.544 92.637 119.608L92.429 119.648V119.888H92.965V122.232ZM96.0202 124.36L98.0202 119.528H97.5402L96.3882 122.384H96.3562L95.1642 119.528H94.6522L96.1242 122.976L95.5402 124.36H96.0202ZM97.9822 123H98.2942C98.2942 123.36 98.2622 123.464 97.9822 123.488V123.816C98.5582 123.816 98.6222 123.504 98.6222 123.008V122.36H97.9822V123ZM101.219 117.96H100.659V123H101.139V118.656L104.275 123H104.675V117.96H104.195V122.112L101.219 117.96ZM107.441 120.544L105.745 117.96H105.193L107.169 121.008V123H107.649V121.008L109.625 117.96H109.089L107.441 120.544ZM58.416 132.096C59.504 132.096 60.392 131.568 60.392 130.096V126.96H59.904V130.176C59.904 131.176 59.344 131.672 58.416 131.672C57.488 131.672 56.944 131.176 56.944 130.168V126.96H56.44V130.096C56.44 131.568 57.328 132.096 58.416 132.096ZM60.8832 130.192C60.8832 131.416 61.7712 132.096 62.9712 132.096C64.0352 132.096 64.8032 131.56 64.8032 130.672C64.8032 129.872 64.3472 129.512 63.4592 129.336L62.5632 129.16C61.8992 129.032 61.5392 128.848 61.5392 128.28C61.5392 127.648 61.9872 127.256 62.7872 127.256C63.7072 127.256 64.2512 127.792 64.2672 128.712L64.7312 128.672C64.7312 127.536 64.0032 126.864 62.7792 126.864C61.7152 126.864 61.0512 127.464 61.0512 128.296C61.0512 129.056 61.5472 129.44 62.2672 129.584L63.2912 129.784C64.0192 129.928 64.3232 130.2 64.3232 130.712C64.3232 131.336 63.8032 131.704 62.9712 131.704C62.0512 131.704 61.3792 131.152 61.3392 130.152L60.8832 130.192Z" fill="black"></path>
  <path d="M314.385 68.59V73H315.26V68.59H314.385ZM316.73 71.348C316.73 70.83 316.996 70.494 317.423 70.494C317.836 70.494 318.025 70.767 318.025 71.243V73H318.865V71.075C318.865 70.389 318.564 69.829 317.738 69.829C317.276 69.829 316.884 70.067 316.73 70.417V69.913H315.89V73H316.73V71.348ZM321.192 73L322.41 69.913H321.591L320.779 72.069H320.751L319.932 69.913H319.05L320.268 73H321.192ZM323.272 71.46C323.272 70.872 323.538 70.466 324.049 70.466C324.567 70.466 324.833 70.872 324.833 71.46C324.833 72.041 324.567 72.447 324.049 72.447C323.538 72.447 323.272 72.041 323.272 71.46ZM325.68 71.46C325.68 70.501 325.008 69.829 324.049 69.829C323.097 69.829 322.425 70.501 322.425 71.46C322.425 72.419 323.097 73.084 324.049 73.084C325.008 73.084 325.68 72.419 325.68 71.46ZM326.089 69.913V73H326.929V69.913H326.089ZM326.075 69.409H326.936V68.59H326.075V69.409ZM327.331 71.46C327.331 72.44 328.01 73.084 328.962 73.084C329.879 73.084 330.383 72.482 330.453 71.74L329.746 71.677C329.683 72.146 329.424 72.44 328.962 72.44C328.5 72.44 328.178 72.097 328.178 71.46C328.178 70.816 328.5 70.473 328.962 70.473C329.424 70.473 329.683 70.76 329.746 71.222L330.453 71.173C330.383 70.431 329.879 69.829 328.962 69.829C328.01 69.829 327.331 70.48 327.331 71.46ZM333.139 71.922C333.02 72.272 332.775 72.447 332.362 72.447C331.907 72.447 331.55 72.125 331.522 71.67H333.839V71.369C333.839 70.529 333.321 69.829 332.313 69.829C331.389 69.829 330.696 70.529 330.696 71.502C330.696 72.475 331.382 73.084 332.334 73.084C333.125 73.084 333.657 72.678 333.818 71.992L333.139 71.922ZM331.536 71.145C331.613 70.76 331.844 70.445 332.306 70.445C332.775 70.445 332.992 70.788 333.02 71.145H331.536ZM336.29 68.59H335.422V73H336.234V69.892L338.488 73H339.188V68.59H338.376V71.53L336.29 68.59ZM341.871 71.565C341.871 72.09 341.619 72.426 341.206 72.426C340.793 72.426 340.618 72.146 340.618 71.677V69.913H339.778V71.845C339.778 72.531 340.058 73.084 340.877 73.084C341.346 73.084 341.71 72.853 341.871 72.496V73H342.711V69.913H341.871V71.565ZM346.101 70.466C345.968 70.088 345.66 69.829 345.114 69.829C344.645 69.829 344.295 70.067 344.141 70.417V69.913H343.301V73H344.141V71.348C344.141 70.83 344.386 70.494 344.792 70.494C345.198 70.494 345.352 70.767 345.352 71.243V73H346.192V71.348C346.192 70.83 346.437 70.494 346.843 70.494C347.256 70.494 347.403 70.767 347.403 71.243V73H348.243V71.075C348.243 70.403 347.977 69.829 347.144 69.829C346.64 69.829 346.269 70.102 346.101 70.466ZM349.625 71.397C349.625 70.837 349.961 70.487 350.437 70.487C350.969 70.487 351.242 70.872 351.242 71.46C351.242 72.041 350.969 72.426 350.437 72.426C349.961 72.426 349.625 72.083 349.625 71.516V71.397ZM349.59 72.405C349.751 72.79 350.143 73.084 350.682 73.084C351.606 73.084 352.089 72.37 352.089 71.46C352.089 70.55 351.606 69.829 350.696 69.829C350.143 69.829 349.772 70.13 349.632 70.508V68.59H348.792V73H349.436L349.59 72.405ZM354.781 71.922C354.662 72.272 354.417 72.447 354.004 72.447C353.549 72.447 353.192 72.125 353.164 71.67H355.481V71.369C355.481 70.529 354.963 69.829 353.955 69.829C353.031 69.829 352.338 70.529 352.338 71.502C352.338 72.475 353.024 73.084 353.976 73.084C354.767 73.084 355.299 72.678 355.46 71.992L354.781 71.922ZM353.178 71.145C353.255 70.76 353.486 70.445 353.948 70.445C354.417 70.445 354.634 70.788 354.662 71.145H353.178ZM358.034 69.955C357.943 69.878 357.789 69.829 357.6 69.829C357.173 69.829 356.851 70.151 356.739 70.501V69.913H355.899V73H356.739V71.474C356.739 70.914 357.033 70.606 357.467 70.606C357.67 70.606 357.81 70.648 357.971 70.739L358.034 69.955ZM314.385 76.59V81H315.26V76.59H314.385ZM315.666 79.978C315.722 80.734 316.338 81.084 317.143 81.084C317.941 81.084 318.487 80.734 318.487 80.104C318.487 79.523 318.102 79.25 317.451 79.145L316.863 79.047C316.639 79.012 316.527 78.914 316.527 78.746C316.527 78.536 316.723 78.403 317.024 78.403C317.465 78.403 317.703 78.578 317.759 78.928L318.452 78.9C318.396 78.214 317.885 77.829 317.031 77.829C316.247 77.829 315.75 78.235 315.75 78.823C315.75 79.397 316.114 79.642 316.772 79.747L317.262 79.831C317.57 79.88 317.71 79.971 317.71 80.181C317.71 80.405 317.458 80.51 317.15 80.51C316.723 80.51 316.443 80.321 316.394 79.95L315.666 79.978ZM318.669 79.978C318.725 80.734 319.341 81.084 320.146 81.084C320.944 81.084 321.49 80.734 321.49 80.104C321.49 79.523 321.105 79.25 320.454 79.145L319.866 79.047C319.642 79.012 319.53 78.914 319.53 78.746C319.53 78.536 319.726 78.403 320.027 78.403C320.468 78.403 320.706 78.578 320.762 78.928L321.455 78.9C321.399 78.214 320.888 77.829 320.034 77.829C319.25 77.829 318.753 78.235 318.753 78.823C318.753 79.397 319.117 79.642 319.775 79.747L320.265 79.831C320.573 79.88 320.713 79.971 320.713 80.181C320.713 80.405 320.461 80.51 320.153 80.51C319.726 80.51 319.446 80.321 319.397 79.95L318.669 79.978ZM323.955 79.565C323.955 80.09 323.703 80.426 323.29 80.426C322.877 80.426 322.702 80.146 322.702 79.677V77.913H321.862V79.845C321.862 80.531 322.142 81.084 322.961 81.084C323.43 81.084 323.794 80.853 323.955 80.496V81H324.795V77.913H323.955V79.565ZM327.646 79.922C327.527 80.272 327.282 80.447 326.869 80.447C326.414 80.447 326.057 80.125 326.029 79.67H328.346V79.369C328.346 78.529 327.828 77.829 326.82 77.829C325.896 77.829 325.203 78.529 325.203 79.502C325.203 80.475 325.889 81.084 326.841 81.084C327.632 81.084 328.164 80.678 328.325 79.992L327.646 79.922ZM326.043 79.145C326.12 78.76 326.351 78.445 326.813 78.445C327.282 78.445 327.499 78.788 327.527 79.145H326.043ZM330.804 80.3V77.29H331.539C332.47 77.29 332.995 77.85 332.995 78.788C332.995 79.74 332.47 80.3 331.539 80.3H330.804ZM329.929 81H331.595C333.016 81 333.898 80.174 333.898 78.795C333.898 77.416 333.016 76.59 331.595 76.59H329.929V81ZM336.154 79.663C336.154 80.16 335.818 80.496 335.377 80.496C335.111 80.496 334.95 80.37 334.95 80.16C334.95 79.852 335.209 79.789 335.573 79.712L336.154 79.586V79.663ZM336.973 79.019C336.973 78.207 336.448 77.829 335.65 77.829C334.831 77.829 334.348 78.27 334.243 78.9L335.006 78.97C335.076 78.669 335.265 78.459 335.615 78.459C335.972 78.459 336.154 78.669 336.154 79.012V79.082L335.307 79.25C334.607 79.39 334.131 79.635 334.131 80.223C334.131 80.755 334.523 81.077 335.167 81.077C335.622 81.077 336.042 80.888 336.217 80.531C336.294 80.867 336.518 81.07 336.868 81.07C337.148 81.07 337.316 80.979 337.449 80.874V80.426C337.358 80.468 337.274 80.489 337.19 80.489C337.057 80.489 336.973 80.412 336.973 80.251V79.019ZM337.796 80.216C337.796 80.874 338.195 81.084 338.671 81.084C339.049 81.084 339.301 80.986 339.525 80.818V80.265C339.343 80.349 339.168 80.412 339 80.412C338.748 80.412 338.629 80.293 338.629 80.027V78.501H339.469V77.913H338.629V77.059H338.118L338.02 77.479C337.95 77.766 337.866 77.92 337.565 77.969L337.355 78.004V78.501H337.796V80.216ZM342.128 79.922C342.009 80.272 341.764 80.447 341.351 80.447C340.896 80.447 340.539 80.125 340.511 79.67H342.828V79.369C342.828 78.529 342.31 77.829 341.302 77.829C340.378 77.829 339.685 78.529 339.685 79.502C339.685 80.475 340.371 81.084 341.323 81.084C342.114 81.084 342.646 80.678 342.807 79.992L342.128 79.922ZM340.525 79.145C340.602 78.76 340.833 78.445 341.295 78.445C341.764 78.445 341.981 78.788 342.009 79.145H340.525ZM315.26 88.3V85.29H315.995C316.926 85.29 317.451 85.85 317.451 86.788C317.451 87.74 316.926 88.3 315.995 88.3H315.26ZM314.385 89H316.051C317.472 89 318.354 88.174 318.354 86.795C318.354 85.416 317.472 84.59 316.051 84.59H314.385V89ZM320.84 87.565C320.84 88.09 320.588 88.426 320.175 88.426C319.762 88.426 319.587 88.146 319.587 87.677V85.913H318.747V87.845C318.747 88.531 319.027 89.084 319.846 89.084C320.315 89.084 320.679 88.853 320.84 88.496V89H321.68V85.913H320.84V87.565ZM324.531 87.922C324.412 88.272 324.167 88.447 323.754 88.447C323.299 88.447 322.942 88.125 322.914 87.67H325.231V87.369C325.231 86.529 324.713 85.829 323.705 85.829C322.781 85.829 322.088 86.529 322.088 87.502C322.088 88.475 322.774 89.084 323.726 89.084C324.517 89.084 325.049 88.678 325.21 87.992L324.531 87.922ZM322.928 87.145C323.005 86.76 323.236 86.445 323.698 86.445C324.167 86.445 324.384 86.788 324.412 87.145H322.928ZM327.689 88.3V85.29H328.424C329.355 85.29 329.88 85.85 329.88 86.788C329.88 87.74 329.355 88.3 328.424 88.3H327.689ZM326.814 89H328.48C329.901 89 330.783 88.174 330.783 86.795C330.783 85.416 329.901 84.59 328.48 84.59H326.814V89ZM333.039 87.663C333.039 88.16 332.703 88.496 332.262 88.496C331.996 88.496 331.835 88.37 331.835 88.16C331.835 87.852 332.094 87.789 332.458 87.712L333.039 87.586V87.663ZM333.858 87.019C333.858 86.207 333.333 85.829 332.535 85.829C331.716 85.829 331.233 86.27 331.128 86.9L331.891 86.97C331.961 86.669 332.15 86.459 332.5 86.459C332.857 86.459 333.039 86.669 333.039 87.012V87.082L332.192 87.25C331.492 87.39 331.016 87.635 331.016 88.223C331.016 88.755 331.408 89.077 332.052 89.077C332.507 89.077 332.927 88.888 333.102 88.531C333.179 88.867 333.403 89.07 333.753 89.07C334.033 89.07 334.201 88.979 334.334 88.874V88.426C334.243 88.468 334.159 88.489 334.075 88.489C333.942 88.489 333.858 88.412 333.858 88.251V87.019ZM334.682 88.216C334.682 88.874 335.081 89.084 335.557 89.084C335.935 89.084 336.187 88.986 336.411 88.818V88.265C336.229 88.349 336.054 88.412 335.886 88.412C335.634 88.412 335.515 88.293 335.515 88.027V86.501H336.355V85.913H335.515V85.059H335.004L334.906 85.479C334.836 85.766 334.752 85.92 334.451 85.969L334.241 86.004V86.501H334.682V88.216ZM339.014 87.922C338.895 88.272 338.65 88.447 338.237 88.447C337.782 88.447 337.425 88.125 337.397 87.67H339.714V87.369C339.714 86.529 339.196 85.829 338.188 85.829C337.264 85.829 336.571 86.529 336.571 87.502C336.571 88.475 337.257 89.084 338.209 89.084C339 89.084 339.532 88.678 339.693 87.992L339.014 87.922ZM337.411 87.145C337.488 86.76 337.719 86.445 338.181 86.445C338.65 86.445 338.867 86.788 338.895 87.145H337.411Z" fill="black"></path>
  <path d="M402.07 71.292H401.307L401.545 70.298H402.245L402.357 69.752H401.671L401.951 68.59H401.3L401.02 69.752H400.18L400.46 68.59H399.802L399.522 69.752H398.752L398.64 70.298H399.396L399.158 71.292H398.465L398.353 71.838H399.025L398.752 73H399.41L399.683 71.838H400.523L400.25 73H400.901L401.174 71.838H401.958L402.07 71.292ZM400.054 70.298H400.894L400.656 71.292H399.816L400.054 70.298ZM406.396 70.795C406.396 69.332 405.668 68.506 404.485 68.506C403.309 68.506 402.581 69.332 402.581 70.795C402.581 72.258 403.309 73.084 404.485 73.084C405.668 73.084 406.396 72.258 406.396 70.795ZM405.472 70.795C405.472 71.859 405.171 72.377 404.485 72.377C403.806 72.377 403.505 71.859 403.505 70.795C403.505 69.731 403.806 69.213 404.485 69.213C405.171 69.213 405.472 69.731 405.472 70.795ZM410.486 70.795C410.486 69.332 409.758 68.506 408.575 68.506C407.399 68.506 406.671 69.332 406.671 70.795C406.671 72.258 407.399 73.084 408.575 73.084C409.758 73.084 410.486 72.258 410.486 70.795ZM409.562 70.795C409.562 71.859 409.261 72.377 408.575 72.377C407.896 72.377 407.595 71.859 407.595 70.795C407.595 69.731 407.896 69.213 408.575 69.213C409.261 69.213 409.562 69.731 409.562 70.795ZM414.576 70.795C414.576 69.332 413.848 68.506 412.665 68.506C411.489 68.506 410.761 69.332 410.761 70.795C410.761 72.258 411.489 73.084 412.665 73.084C413.848 73.084 414.576 72.258 414.576 70.795ZM413.652 70.795C413.652 71.859 413.351 72.377 412.665 72.377C411.986 72.377 411.685 71.859 411.685 70.795C411.685 69.731 411.986 69.213 412.665 69.213C413.351 69.213 413.652 69.731 413.652 70.795ZM418.666 70.795C418.666 69.332 417.938 68.506 416.755 68.506C415.579 68.506 414.851 69.332 414.851 70.795C414.851 72.258 415.579 73.084 416.755 73.084C417.938 73.084 418.666 72.258 418.666 70.795ZM417.742 70.795C417.742 71.859 417.441 72.377 416.755 72.377C416.076 72.377 415.775 71.859 415.775 70.795C415.775 69.731 416.076 69.213 416.755 69.213C417.441 69.213 417.742 69.731 417.742 70.795ZM421.965 68.59H419.298C419.277 69.318 419.123 70.459 419.011 71.068L419.865 71.131C420.005 70.893 420.25 70.697 420.642 70.697C421.153 70.697 421.447 71.061 421.447 71.537C421.447 72.055 421.132 72.377 420.635 72.377C420.089 72.377 419.795 72.041 419.795 71.509L418.941 71.446C418.906 72.44 419.515 73.084 420.628 73.084C421.594 73.084 422.273 72.475 422.273 71.53C422.273 70.697 421.762 70.025 420.747 70.025C420.306 70.025 420.005 70.186 419.823 70.368C419.865 70.172 419.942 69.584 419.949 69.367H421.965V68.59ZM425.536 68.59H422.869C422.848 69.318 422.694 70.459 422.582 71.068L423.436 71.131C423.576 70.893 423.821 70.697 424.213 70.697C424.724 70.697 425.018 71.061 425.018 71.537C425.018 72.055 424.703 72.377 424.206 72.377C423.66 72.377 423.366 72.041 423.366 71.509L422.512 71.446C422.477 72.44 423.086 73.084 424.199 73.084C425.165 73.084 425.844 72.475 425.844 71.53C425.844 70.697 425.333 70.025 424.318 70.025C423.877 70.025 423.576 70.186 423.394 70.368C423.436 70.172 423.513 69.584 423.52 69.367H425.536V68.59ZM396.518 76.59H395.461L393.417 79.124V79.936H395.657V81H396.518V79.936H397.19V79.208H396.518V76.59ZM395.657 77.36V79.208H394.173L395.657 77.36ZM401.331 81L402.388 77.528H402.416V81H403.298V76.59H401.947L401.03 79.796H401.009L400.043 76.59H398.664V81H399.476V77.528H399.504L400.582 81H401.331ZM405.764 79.663C405.764 80.16 405.428 80.496 404.987 80.496C404.721 80.496 404.56 80.37 404.56 80.16C404.56 79.852 404.819 79.789 405.183 79.712L405.764 79.586V79.663ZM406.583 79.019C406.583 78.207 406.058 77.829 405.26 77.829C404.441 77.829 403.958 78.27 403.853 78.9L404.616 78.97C404.686 78.669 404.875 78.459 405.225 78.459C405.582 78.459 405.764 78.669 405.764 79.012V79.082L404.917 79.25C404.217 79.39 403.741 79.635 403.741 80.223C403.741 80.755 404.133 81.077 404.777 81.077C405.232 81.077 405.652 80.888 405.827 80.531C405.904 80.867 406.128 81.07 406.478 81.07C406.758 81.07 406.926 80.979 407.059 80.874V80.426C406.968 80.468 406.884 80.489 406.8 80.489C406.667 80.489 406.583 80.412 406.583 80.251V79.019ZM408.48 82.148L410.251 77.913H409.432L408.599 80.02H408.571L407.731 77.913H406.849L408.13 81.014L407.654 82.148H408.48ZM412.767 80.258L413.467 79.698C414.132 79.166 414.678 78.669 414.678 77.892C414.678 77.108 414.146 76.506 413.096 76.506C412.123 76.506 411.472 77.101 411.472 78.025C411.472 78.158 411.493 78.298 411.521 78.438L412.389 78.473C412.354 78.354 412.34 78.235 412.34 78.088C412.34 77.577 412.585 77.241 413.075 77.241C413.551 77.241 413.761 77.535 413.761 77.941C413.761 78.473 413.383 78.823 412.697 79.397L411.465 80.412V81H414.79V80.258H412.767ZM418.769 78.795C418.769 77.332 418.041 76.506 416.858 76.506C415.682 76.506 414.954 77.332 414.954 78.795C414.954 80.258 415.682 81.084 416.858 81.084C418.041 81.084 418.769 80.258 418.769 78.795ZM417.845 78.795C417.845 79.859 417.544 80.377 416.858 80.377C416.179 80.377 415.878 79.859 415.878 78.795C415.878 77.731 416.179 77.213 416.858 77.213C417.544 77.213 417.845 77.731 417.845 78.795ZM420.318 80.258L421.018 79.698C421.683 79.166 422.229 78.669 422.229 77.892C422.229 77.108 421.697 76.506 420.647 76.506C419.674 76.506 419.023 77.101 419.023 78.025C419.023 78.158 419.044 78.298 419.072 78.438L419.94 78.473C419.905 78.354 419.891 78.235 419.891 78.088C419.891 77.577 420.136 77.241 420.626 77.241C421.102 77.241 421.312 77.535 421.312 77.941C421.312 78.473 420.934 78.823 420.248 79.397L419.016 80.412V81H422.341V80.258H420.318ZM425.536 76.59H422.869C422.848 77.318 422.694 78.459 422.582 79.068L423.436 79.131C423.576 78.893 423.821 78.697 424.213 78.697C424.724 78.697 425.018 79.061 425.018 79.537C425.018 80.055 424.703 80.377 424.206 80.377C423.66 80.377 423.366 80.041 423.366 79.509L422.512 79.446C422.477 80.44 423.086 81.084 424.199 81.084C425.165 81.084 425.844 80.475 425.844 79.53C425.844 78.697 425.333 78.025 424.318 78.025C423.877 78.025 423.576 78.186 423.394 78.368C423.436 78.172 423.513 77.584 423.52 77.367H425.536V76.59ZM396.518 84.59H395.461L393.417 87.124V87.936H395.657V89H396.518V87.936H397.19V87.208H396.518V84.59ZM395.657 85.36V87.208H394.173L395.657 85.36ZM401.331 89L402.388 85.528H402.416V89H403.298V84.59H401.947L401.03 87.796H401.009L400.043 84.59H398.664V89H399.476V85.528H399.504L400.582 89H401.331ZM405.764 87.663C405.764 88.16 405.428 88.496 404.987 88.496C404.721 88.496 404.56 88.37 404.56 88.16C404.56 87.852 404.819 87.789 405.183 87.712L405.764 87.586V87.663ZM406.583 87.019C406.583 86.207 406.058 85.829 405.26 85.829C404.441 85.829 403.958 86.27 403.853 86.9L404.616 86.97C404.686 86.669 404.875 86.459 405.225 86.459C405.582 86.459 405.764 86.669 405.764 87.012V87.082L404.917 87.25C404.217 87.39 403.741 87.635 403.741 88.223C403.741 88.755 404.133 89.077 404.777 89.077C405.232 89.077 405.652 88.888 405.827 88.531C405.904 88.867 406.128 89.07 406.478 89.07C406.758 89.07 406.926 88.979 407.059 88.874V88.426C406.968 88.468 406.884 88.489 406.8 88.489C406.667 88.489 406.583 88.412 406.583 88.251V87.019ZM408.48 90.148L410.251 85.913H409.432L408.599 88.02H408.571L407.731 85.913H406.849L408.13 89.014L407.654 90.148H408.48ZM412.767 88.258L413.467 87.698C414.132 87.166 414.678 86.669 414.678 85.892C414.678 85.108 414.146 84.506 413.096 84.506C412.123 84.506 411.472 85.101 411.472 86.025C411.472 86.158 411.493 86.298 411.521 86.438L412.389 86.473C412.354 86.354 412.34 86.235 412.34 86.088C412.34 85.577 412.585 85.241 413.075 85.241C413.551 85.241 413.761 85.535 413.761 85.941C413.761 86.473 413.383 86.823 412.697 87.397L411.465 88.412V89H414.79V88.258H412.767ZM418.769 86.795C418.769 85.332 418.041 84.506 416.858 84.506C415.682 84.506 414.954 85.332 414.954 86.795C414.954 88.258 415.682 89.084 416.858 89.084C418.041 89.084 418.769 88.258 418.769 86.795ZM417.845 86.795C417.845 87.859 417.544 88.377 416.858 88.377C416.179 88.377 415.878 87.859 415.878 86.795C415.878 85.731 416.179 85.213 416.858 85.213C417.544 85.213 417.845 85.731 417.845 86.795ZM420.318 88.258L421.018 87.698C421.683 87.166 422.229 86.669 422.229 85.892C422.229 85.108 421.697 84.506 420.647 84.506C419.674 84.506 419.023 85.101 419.023 86.025C419.023 86.158 419.044 86.298 419.072 86.438L419.94 86.473C419.905 86.354 419.891 86.235 419.891 86.088C419.891 85.577 420.136 85.241 420.626 85.241C421.102 85.241 421.312 85.535 421.312 85.941C421.312 86.473 420.934 86.823 420.248 87.397L419.016 88.412V89H422.341V88.258H420.318ZM425.536 84.59H422.869C422.848 85.318 422.694 86.459 422.582 87.068L423.436 87.131C423.576 86.893 423.821 86.697 424.213 86.697C424.724 86.697 425.018 87.061 425.018 87.537C425.018 88.055 424.703 88.377 424.206 88.377C423.66 88.377 423.366 88.041 423.366 87.509L422.512 87.446C422.477 88.44 423.086 89.084 424.199 89.084C425.165 89.084 425.844 88.475 425.844 87.53C425.844 86.697 425.333 86.025 424.318 86.025C423.877 86.025 423.576 86.186 423.394 86.368C423.436 86.172 423.513 85.584 423.52 85.367H425.536V84.59Z" fill="black"></path>
  <path d="M52.18 305.12C53.69 305.12 54.89 304.39 54.89 302.55V298.7H53.64V302.43C53.64 303.51 53.18 304.07 52.18 304.07C51.19 304.07 50.73 303.51 50.73 302.42V298.7H49.49V302.55C49.49 304.39 50.67 305.12 52.18 305.12ZM55.4362 303.54C55.5162 304.62 56.3962 305.12 57.5462 305.12C58.6862 305.12 59.4662 304.62 59.4662 303.72C59.4662 302.89 58.9162 302.5 57.9862 302.35L57.1462 302.21C56.8262 302.16 56.6662 302.02 56.6662 301.78C56.6662 301.48 56.9462 301.29 57.3762 301.29C58.0062 301.29 58.3462 301.54 58.4262 302.04L59.4162 302C59.3362 301.02 58.6062 300.47 57.3862 300.47C56.2662 300.47 55.5562 301.05 55.5562 301.89C55.5562 302.71 56.0762 303.06 57.0162 303.21L57.7162 303.33C58.1562 303.4 58.3562 303.53 58.3562 303.83C58.3562 304.15 57.9962 304.3 57.5562 304.3C56.9462 304.3 56.5462 304.03 56.4762 303.5L55.4362 303.54ZM62.7482 303.09C62.7482 303.8 62.2682 304.28 61.6382 304.28C61.2582 304.28 61.0282 304.1 61.0282 303.8C61.0282 303.36 61.3982 303.27 61.9182 303.16L62.7482 302.98V303.09ZM63.9182 302.17C63.9182 301.01 63.1682 300.47 62.0282 300.47C60.8582 300.47 60.1682 301.1 60.0182 302L61.1082 302.1C61.2082 301.67 61.4782 301.37 61.9782 301.37C62.4882 301.37 62.7482 301.67 62.7482 302.16V302.26L61.5382 302.5C60.5382 302.7 59.8582 303.05 59.8582 303.89C59.8582 304.65 60.4182 305.11 61.3382 305.11C61.9882 305.11 62.5882 304.84 62.8382 304.33C62.9482 304.81 63.2682 305.1 63.7682 305.1C64.1682 305.1 64.4082 304.97 64.5982 304.82V304.18C64.4682 304.24 64.3482 304.27 64.2282 304.27C64.0382 304.27 63.9182 304.16 63.9182 303.93V302.17ZM68.9649 301.98C68.9649 301.73 68.8949 301.5 68.7749 301.31C69.0049 301.23 69.2949 301.19 69.5349 301.19V300.23C69.0549 300.23 68.6149 300.51 68.3649 300.86C68.0049 300.61 67.5049 300.47 66.9649 300.47C65.8049 300.47 64.9749 301.04 64.9749 301.98C64.9749 302.46 65.2049 302.85 65.5849 303.11C65.1549 303.28 64.8749 303.58 64.8749 303.98C64.8749 304.34 65.0849 304.66 65.4849 304.79C64.9649 304.86 64.6049 305.18 64.6049 305.63C64.6049 306.45 65.6449 306.76 66.8649 306.76C68.2349 306.76 69.5149 306.3 69.5149 305.2C69.5149 304.49 69.0149 303.96 68.0349 303.96H66.2749C65.9449 303.96 65.8149 303.83 65.8149 303.63C65.8149 303.49 65.8849 303.38 65.9949 303.31C66.2749 303.42 66.6049 303.47 66.9649 303.47C68.1249 303.47 68.9649 302.9 68.9649 301.98ZM65.6949 305.45C65.6949 305.13 65.9549 305 66.2749 305H67.7449C68.1449 305 68.3849 305.11 68.3849 305.4C68.3849 305.83 67.7449 306.03 66.8649 306.03C66.1549 306.03 65.6949 305.85 65.6949 305.45ZM67.7449 301.98C67.7449 302.49 67.4349 302.76 66.9749 302.76C66.5249 302.76 66.2149 302.49 66.2149 301.98C66.2149 301.47 66.5249 301.2 66.9749 301.2C67.4349 301.2 67.7449 301.47 67.7449 301.98ZM73.0766 303.46C72.9066 303.96 72.5566 304.21 71.9666 304.21C71.3166 304.21 70.8066 303.75 70.7666 303.1H74.0766V302.67C74.0766 301.47 73.3366 300.47 71.8966 300.47C70.5766 300.47 69.5866 301.47 69.5866 302.86C69.5866 304.25 70.5666 305.12 71.9266 305.12C73.0566 305.12 73.8166 304.54 74.0466 303.56L73.0766 303.46ZM70.7866 302.35C70.8966 301.8 71.2266 301.35 71.8866 301.35C72.5566 301.35 72.8666 301.84 72.9066 302.35H70.7866ZM77.6916 304V299.7H78.7416C80.0716 299.7 80.8216 300.5 80.8216 301.84C80.8216 303.2 80.0716 304 78.7416 304H77.6916ZM76.4416 305H78.8216C80.8516 305 82.1116 303.82 82.1116 301.85C82.1116 299.88 80.8516 298.7 78.8216 298.7H76.4416V305ZM86.0536 303.46C85.8836 303.96 85.5336 304.21 84.9436 304.21C84.2936 304.21 83.7836 303.75 83.7436 303.1H87.0536V302.67C87.0536 301.47 86.3136 300.47 84.8736 300.47C83.5536 300.47 82.5636 301.47 82.5636 302.86C82.5636 304.25 83.5436 305.12 84.9036 305.12C86.0336 305.12 86.7936 304.54 87.0236 303.56L86.0536 303.46ZM83.7636 302.35C83.8736 301.8 84.2036 301.35 84.8636 301.35C85.5336 301.35 85.8436 301.84 85.8836 302.35H83.7636ZM87.8526 303.88C87.8526 304.82 88.4226 305.12 89.1026 305.12C89.6426 305.12 90.0027 304.98 90.3227 304.74V303.95C90.0626 304.07 89.8127 304.16 89.5726 304.16C89.2126 304.16 89.0426 303.99 89.0426 303.61V301.43H90.2426V300.59H89.0426V299.37H88.3126L88.1726 299.97C88.0726 300.38 87.9526 300.6 87.5226 300.67L87.2226 300.72V301.43H87.8526V303.88ZM93.5325 303.09C93.5325 303.8 93.0525 304.28 92.4225 304.28C92.0425 304.28 91.8125 304.1 91.8125 303.8C91.8125 303.36 92.1825 303.27 92.7025 303.16L93.5325 302.98V303.09ZM94.7025 302.17C94.7025 301.01 93.9525 300.47 92.8125 300.47C91.6425 300.47 90.9525 301.1 90.8025 302L91.8925 302.1C91.9925 301.67 92.2625 301.37 92.7625 301.37C93.2725 301.37 93.5325 301.67 93.5325 302.16V302.26L92.3225 302.5C91.3225 302.7 90.6425 303.05 90.6425 303.89C90.6425 304.65 91.2025 305.11 92.1225 305.11C92.7725 305.11 93.3725 304.84 93.6225 304.33C93.7325 304.81 94.0525 305.1 94.5525 305.1C94.9525 305.1 95.1925 304.97 95.3825 304.82V304.18C95.2525 304.24 95.1325 304.27 95.0125 304.27C94.8225 304.27 94.7025 304.16 94.7025 303.93V302.17ZM95.8299 300.59V305H97.0299V300.59H95.8299ZM95.8099 299.87H97.0399V298.7H95.8099V299.87ZM97.916 298.7V305H99.116V298.7H97.916ZM99.6821 303.54C99.7621 304.62 100.642 305.12 101.792 305.12C102.932 305.12 103.712 304.62 103.712 303.72C103.712 302.89 103.162 302.5 102.232 302.35L101.392 302.21C101.072 302.16 100.912 302.02 100.912 301.78C100.912 301.48 101.192 301.29 101.622 301.29C102.252 301.29 102.592 301.54 102.672 302.04L103.662 302C103.582 301.02 102.852 300.47 101.632 300.47C100.512 300.47 99.8021 301.05 99.8021 301.89C99.8021 302.71 100.322 303.06 101.262 303.21L101.962 303.33C102.402 303.4 102.602 303.53 102.602 303.83C102.602 304.15 102.242 304.3 101.802 304.3C101.192 304.3 100.792 304.03 100.722 303.5L99.6821 303.54Z" fill="black"></path>
  <path d="M56.33 169.22V173H57.08V169.22H56.33ZM57.693 172.328C57.693 172.892 58.035 173.072 58.443 173.072C58.767 173.072 58.983 172.988 59.175 172.844V172.37C59.019 172.442 58.869 172.496 58.725 172.496C58.509 172.496 58.407 172.394 58.407 172.166V170.858H59.127V170.354H58.407V169.622H57.969L57.885 169.982C57.825 170.228 57.753 170.36 57.495 170.402L57.315 170.432V170.858H57.693V172.328ZM61.3888 172.076C61.2868 172.376 61.0768 172.526 60.7228 172.526C60.3328 172.526 60.0268 172.25 60.0028 171.86H61.9888V171.602C61.9888 170.882 61.5448 170.282 60.6808 170.282C59.8888 170.282 59.2948 170.882 59.2948 171.716C59.2948 172.55 59.8828 173.072 60.6988 173.072C61.3768 173.072 61.8328 172.724 61.9708 172.136L61.3888 172.076ZM60.0148 171.41C60.0808 171.08 60.2788 170.81 60.6748 170.81C61.0768 170.81 61.2628 171.104 61.2868 171.41H60.0148ZM64.7299 170.828C64.6159 170.504 64.3519 170.282 63.8839 170.282C63.4819 170.282 63.1819 170.486 63.0499 170.786V170.354H62.3299V173H63.0499V171.584C63.0499 171.14 63.2599 170.852 63.6079 170.852C63.9559 170.852 64.0879 171.086 64.0879 171.494V173H64.8079V171.584C64.8079 171.14 65.0179 170.852 65.3659 170.852C65.7199 170.852 65.8459 171.086 65.8459 171.494V173H66.5659V171.35C66.5659 170.774 66.3379 170.282 65.6239 170.282C65.1919 170.282 64.8739 170.516 64.7299 170.828Z" fill="black"></path>
  <path d="M59.534 319C59.408 318.862 59.39 318.67 59.342 318.112C59.3 317.668 59.078 317.416 58.646 317.332C59.108 317.272 59.48 316.942 59.48 316.372C59.48 315.67 59.006 315.22 58.04 315.22H56.33V319H57.068V317.602H57.956C58.388 317.602 58.58 317.794 58.61 318.22C58.64 318.64 58.688 318.898 58.766 319H59.534ZM57.068 317.014V315.826H57.938C58.484 315.826 58.736 316.048 58.736 316.426C58.736 316.834 58.484 317.014 57.938 317.014H57.068ZM61.4782 317.854C61.4782 318.28 61.1902 318.568 60.8122 318.568C60.5842 318.568 60.4462 318.46 60.4462 318.28C60.4462 318.016 60.6682 317.962 60.9802 317.896L61.4782 317.788V317.854ZM62.1802 317.302C62.1802 316.606 61.7302 316.282 61.0462 316.282C60.3442 316.282 59.9302 316.66 59.8402 317.2L60.4942 317.26C60.5542 317.002 60.7162 316.822 61.0162 316.822C61.3222 316.822 61.4782 317.002 61.4782 317.296V317.356L60.7522 317.5C60.1522 317.62 59.7442 317.83 59.7442 318.334C59.7442 318.79 60.0802 319.066 60.6322 319.066C61.0222 319.066 61.3822 318.904 61.5322 318.598C61.5982 318.886 61.7902 319.06 62.0902 319.06C62.3302 319.06 62.4742 318.982 62.5882 318.892V318.508C62.5102 318.544 62.4382 318.562 62.3662 318.562C62.2522 318.562 62.1802 318.496 62.1802 318.358V317.302ZM62.869 318.328C62.869 318.892 63.211 319.072 63.619 319.072C63.943 319.072 64.159 318.988 64.351 318.844V318.37C64.195 318.442 64.045 318.496 63.901 318.496C63.685 318.496 63.583 318.394 63.583 318.166V316.858H64.303V316.354H63.583V315.622H63.145L63.061 315.982C63.001 316.228 62.929 316.36 62.671 316.402L62.491 316.432V316.858H62.869V318.328ZM66.5648 318.076C66.4628 318.376 66.2528 318.526 65.8988 318.526C65.5088 318.526 65.2028 318.25 65.1788 317.86H67.1648V317.602C67.1648 316.882 66.7208 316.282 65.8568 316.282C65.0648 316.282 64.4708 316.882 64.4708 317.716C64.4708 318.55 65.0588 319.072 65.8748 319.072C66.5528 319.072 67.0088 318.724 67.1468 318.136L66.5648 318.076ZM65.1908 317.41C65.2568 317.08 65.4548 316.81 65.8508 316.81C66.2528 316.81 66.4388 317.104 66.4628 317.41H65.1908Z" fill="black"></path>
  <path d="M316.71 243V237.74H318.97V236.7H313.23V237.74H315.46V243H316.71ZM325.33 239.85C325.33 237.91 323.97 236.58 322.14 236.58C320.3 236.58 318.94 237.91 318.94 239.85C318.94 241.79 320.3 243.12 322.14 243.12C323.97 243.12 325.33 241.79 325.33 239.85ZM324.04 239.85C324.04 241.17 323.3 242.02 322.14 242.02C320.98 242.02 320.24 241.17 320.24 239.85C320.24 238.53 320.98 237.68 322.14 237.68C323.3 237.68 324.04 238.53 324.04 239.85ZM328.783 243V237.74H331.043V236.7H325.303V237.74H327.533V243H328.783ZM332.952 236.7L330.402 243H331.662L332.272 241.44H334.952L335.582 243H336.912L334.342 236.7H332.952ZM333.582 238.12H333.622L334.572 240.48H332.652L333.582 238.12ZM337.402 236.7V243H341.982V241.96H338.652V236.7H337.402ZM362.443 240.76C362.443 242.14 363.393 242.95 364.773 243.09V244.01H365.443V243.11C366.733 243.05 367.693 242.39 367.693 241.21C367.693 240.19 367.103 239.63 365.883 239.41L365.443 239.33V237.58C366.043 237.73 366.433 238.18 366.463 238.87L367.563 238.83C367.543 237.57 366.793 236.75 365.443 236.61V235.77H364.773V236.59C363.433 236.66 362.613 237.38 362.613 238.5C362.613 239.54 363.283 240.09 364.253 240.26L364.773 240.36V242.12C364.103 241.98 363.613 241.52 363.563 240.71L362.443 240.76ZM365.483 240.48C366.153 240.6 366.503 240.81 366.503 241.29C366.503 241.81 366.093 242.1 365.443 242.15V240.48H365.483ZM363.783 238.41C363.783 237.88 364.133 237.58 364.773 237.53V239.2L364.733 239.19C364.153 239.08 363.783 238.9 363.783 238.41ZM367.994 238.46H369.174V243H370.424V236.68H369.504C369.274 237.34 368.874 237.64 367.994 237.64V238.46ZM373.076 241.94L374.076 241.14C375.026 240.38 375.806 239.67 375.806 238.56C375.806 237.44 375.046 236.58 373.546 236.58C372.156 236.58 371.226 237.43 371.226 238.75C371.226 238.94 371.256 239.14 371.296 239.34L372.536 239.39C372.486 239.22 372.466 239.05 372.466 238.84C372.466 238.11 372.816 237.63 373.516 237.63C374.196 237.63 374.496 238.05 374.496 238.63C374.496 239.39 373.956 239.89 372.976 240.71L371.216 242.16V243H375.966V241.94H373.076ZM381.702 239.85C381.702 237.76 380.662 236.58 378.972 236.58C377.292 236.58 376.252 237.76 376.252 239.85C376.252 241.94 377.292 243.12 378.972 243.12C380.662 243.12 381.702 241.94 381.702 239.85ZM380.382 239.85C380.382 241.37 379.952 242.11 378.972 242.11C378.002 242.11 377.572 241.37 377.572 239.85C377.572 238.33 378.002 237.59 378.972 237.59C379.952 237.59 380.382 238.33 380.382 239.85ZM387.597 239.85C387.597 237.76 386.557 236.58 384.867 236.58C383.187 236.58 382.147 237.76 382.147 239.85C382.147 241.94 383.187 243.12 384.867 243.12C386.557 243.12 387.597 241.94 387.597 239.85ZM386.277 239.85C386.277 241.37 385.847 242.11 384.867 242.11C383.897 242.11 383.467 241.37 383.467 239.85C383.467 238.33 383.897 237.59 384.867 237.59C385.847 237.59 386.277 238.33 386.277 239.85Z" fill="black"></path>
  <path d="M321.99 171.11C321.99 169.946 321.174 169.148 320.076 169.148C318.972 169.148 318.156 169.946 318.156 171.11C318.156 172.274 318.972 173.072 320.076 173.072C320.448 173.072 320.79 172.976 321.084 172.802L321.42 173.186L321.84 172.85L321.498 172.46C321.804 172.118 321.99 171.656 321.99 171.11ZM321.222 171.11C321.222 171.44 321.156 171.716 321.036 171.926L320.652 171.482L320.238 171.836L320.64 172.298C320.484 172.382 320.292 172.424 320.076 172.424C319.38 172.424 318.936 171.902 318.936 171.11C318.936 170.318 319.38 169.808 320.076 169.808C320.772 169.808 321.222 170.318 321.222 171.11ZM322.494 172.328C322.494 172.892 322.836 173.072 323.244 173.072C323.568 173.072 323.784 172.988 323.976 172.844V172.37C323.82 172.442 323.67 172.496 323.526 172.496C323.31 172.496 323.208 172.394 323.208 172.166V170.858H323.928V170.354H323.208V169.622H322.77L322.686 169.982C322.626 170.228 322.554 170.36 322.296 170.402L322.116 170.432V170.858H322.494V172.328ZM325.373 173.984L326.891 170.354H326.189L325.475 172.16H325.451L324.731 170.354H323.975L325.073 173.012L324.665 173.984H325.373ZM360.9 169.22L359.37 173H360.126L360.492 172.064H362.1L362.478 173H363.276L361.734 169.22H360.9ZM361.278 170.072H361.302L361.872 171.488H360.72L361.278 170.072ZM365.897 170.828C365.783 170.504 365.519 170.282 365.051 170.282C364.649 170.282 364.349 170.486 364.217 170.786V170.354H363.497V173H364.217V171.584C364.217 171.14 364.427 170.852 364.775 170.852C365.123 170.852 365.255 171.086 365.255 171.494V173H365.975V171.584C365.975 171.14 366.185 170.852 366.533 170.852C366.887 170.852 367.013 171.086 367.013 171.494V173H367.733V171.35C367.733 170.774 367.505 170.282 366.791 170.282C366.359 170.282 366.041 170.516 365.897 170.828ZM368.757 171.68C368.757 171.176 368.985 170.828 369.423 170.828C369.867 170.828 370.095 171.176 370.095 171.68C370.095 172.178 369.867 172.526 369.423 172.526C368.985 172.526 368.757 172.178 368.757 171.68ZM370.821 171.68C370.821 170.858 370.245 170.282 369.423 170.282C368.607 170.282 368.031 170.858 368.031 171.68C368.031 172.502 368.607 173.072 369.423 173.072C370.245 173.072 370.821 172.502 370.821 171.68ZM372.918 171.77C372.918 172.22 372.702 172.508 372.348 172.508C371.994 172.508 371.844 172.268 371.844 171.866V170.354H371.124V172.01C371.124 172.598 371.364 173.072 372.066 173.072C372.468 173.072 372.78 172.874 372.918 172.568V173H373.638V170.354H372.918V171.77ZM374.847 171.584C374.847 171.14 375.075 170.852 375.441 170.852C375.795 170.852 375.957 171.086 375.957 171.494V173H376.677V171.35C376.677 170.762 376.419 170.282 375.711 170.282C375.315 170.282 374.979 170.486 374.847 170.786V170.354H374.127V173H374.847V171.584ZM377.225 172.328C377.225 172.892 377.567 173.072 377.975 173.072C378.299 173.072 378.515 172.988 378.707 172.844V172.37C378.551 172.442 378.401 172.496 378.257 172.496C378.041 172.496 377.939 172.394 377.939 172.166V170.858H378.659V170.354H377.939V169.622H377.501L377.417 169.982C377.357 170.228 377.285 170.36 377.027 170.402L376.847 170.432V170.858H377.225V172.328Z" fill="black"></path>
  <path d="M253.99 317.11C253.99 315.946 253.174 315.148 252.076 315.148C250.972 315.148 250.156 315.946 250.156 317.11C250.156 318.274 250.972 319.072 252.076 319.072C252.448 319.072 252.79 318.976 253.084 318.802L253.42 319.186L253.84 318.85L253.498 318.46C253.804 318.118 253.99 317.656 253.99 317.11ZM253.222 317.11C253.222 317.44 253.156 317.716 253.036 317.926L252.652 317.482L252.238 317.836L252.64 318.298C252.484 318.382 252.292 318.424 252.076 318.424C251.38 318.424 250.936 317.902 250.936 317.11C250.936 316.318 251.38 315.808 252.076 315.808C252.772 315.808 253.222 316.318 253.222 317.11ZM254.494 318.328C254.494 318.892 254.836 319.072 255.244 319.072C255.568 319.072 255.784 318.988 255.976 318.844V318.37C255.82 318.442 255.67 318.496 255.526 318.496C255.31 318.496 255.208 318.394 255.208 318.166V316.858H255.928V316.354H255.208V315.622H254.77L254.686 315.982C254.626 316.228 254.554 316.36 254.296 316.402L254.116 316.432V316.858H254.494V318.328ZM257.373 319.984L258.891 316.354H258.189L257.475 318.16H257.451L256.731 316.354H255.975L257.073 319.012L256.665 319.984H257.373ZM292.9 315.22L291.37 319H292.126L292.492 318.064H294.1L294.478 319H295.276L293.734 315.22H292.9ZM293.278 316.072H293.302L293.872 317.488H292.72L293.278 316.072ZM297.897 316.828C297.783 316.504 297.519 316.282 297.051 316.282C296.649 316.282 296.349 316.486 296.217 316.786V316.354H295.497V319H296.217V317.584C296.217 317.14 296.427 316.852 296.775 316.852C297.123 316.852 297.255 317.086 297.255 317.494V319H297.975V317.584C297.975 317.14 298.185 316.852 298.533 316.852C298.887 316.852 299.013 317.086 299.013 317.494V319H299.733V317.35C299.733 316.774 299.505 316.282 298.791 316.282C298.359 316.282 298.041 316.516 297.897 316.828ZM300.757 317.68C300.757 317.176 300.985 316.828 301.423 316.828C301.867 316.828 302.095 317.176 302.095 317.68C302.095 318.178 301.867 318.526 301.423 318.526C300.985 318.526 300.757 318.178 300.757 317.68ZM302.821 317.68C302.821 316.858 302.245 316.282 301.423 316.282C300.607 316.282 300.031 316.858 300.031 317.68C300.031 318.502 300.607 319.072 301.423 319.072C302.245 319.072 302.821 318.502 302.821 317.68ZM304.918 317.77C304.918 318.22 304.702 318.508 304.348 318.508C303.994 318.508 303.844 318.268 303.844 317.866V316.354H303.124V318.01C303.124 318.598 303.364 319.072 304.066 319.072C304.468 319.072 304.78 318.874 304.918 318.568V319H305.638V316.354H304.918V317.77ZM306.847 317.584C306.847 317.14 307.075 316.852 307.441 316.852C307.795 316.852 307.957 317.086 307.957 317.494V319H308.677V317.35C308.677 316.762 308.419 316.282 307.711 316.282C307.315 316.282 306.979 316.486 306.847 316.786V316.354H306.127V319H306.847V317.584ZM309.225 318.328C309.225 318.892 309.567 319.072 309.975 319.072C310.299 319.072 310.515 318.988 310.707 318.844V318.37C310.551 318.442 310.401 318.496 310.257 318.496C310.041 318.496 309.939 318.394 309.939 318.166V316.858H310.659V316.354H309.939V315.622H309.501L309.417 315.982C309.357 316.228 309.285 316.36 309.027 316.402L308.847 316.432V316.858H309.225V318.328Z" fill="black"></path>
  <rect x="52" y="184" width="376" height="1" fill="#D9D9D9"></rect>
  <rect x="52" y="223" width="376" height="1" fill="#D9D9D9"></rect>
  <rect x="52" y="325" width="376" height="1" fill="#D9D9D9"></rect>
  <rect x="314.25" y="101.25" width="46.5" height="12.5" fill="black" stroke="black" stroke-width="0.5"></rect>
  <rect x="361.25" y="101.25" width="66.5" height="12.5" stroke="black" stroke-width="0.5"></rect>
  <path d="M330.096 107.97C330.096 108.631 329.971 109.193 329.72 109.656C329.472 110.12 329.132 110.474 328.702 110.719C328.274 110.962 327.793 111.083 327.258 111.083C326.72 111.083 326.236 110.961 325.808 110.716C325.38 110.471 325.042 110.117 324.793 109.654C324.545 109.19 324.42 108.629 324.42 107.97C324.42 107.309 324.545 106.747 324.793 106.283C325.042 105.819 325.38 105.466 325.808 105.223C326.236 104.979 326.72 104.857 327.258 104.857C327.793 104.857 328.274 104.979 328.702 105.223C329.132 105.466 329.472 105.819 329.72 106.283C329.971 106.747 330.096 107.309 330.096 107.97ZM328.797 107.97C328.797 107.542 328.733 107.181 328.605 106.887C328.478 106.593 328.3 106.37 328.069 106.218C327.838 106.066 327.568 105.99 327.258 105.99C326.948 105.99 326.678 106.066 326.447 106.218C326.217 106.37 326.037 106.593 325.909 106.887C325.782 107.181 325.719 107.542 325.719 107.97C325.719 108.398 325.782 108.759 325.909 109.053C326.037 109.347 326.217 109.57 326.447 109.722C326.678 109.874 326.948 109.949 327.258 109.949C327.568 109.949 327.838 109.874 328.069 109.722C328.3 109.57 328.478 109.347 328.605 109.053C328.733 108.759 328.797 108.398 328.797 107.97ZM330.945 111V104.939H333.336C333.795 104.939 334.187 105.027 334.51 105.203C334.834 105.376 335.081 105.618 335.25 105.928C335.422 106.236 335.508 106.591 335.508 106.993C335.508 107.396 335.421 107.751 335.247 108.058C335.074 108.366 334.822 108.606 334.493 108.778C334.165 108.949 333.769 109.035 333.303 109.035H331.779V108.008H333.096C333.343 108.008 333.546 107.966 333.706 107.881C333.867 107.794 333.988 107.675 334.067 107.523C334.147 107.369 334.188 107.192 334.188 106.993C334.188 106.792 334.147 106.616 334.067 106.466C333.988 106.314 333.867 106.197 333.706 106.114C333.544 106.029 333.339 105.987 333.09 105.987H332.226V111H330.945ZM336.239 111V104.939H340.323V105.996H337.521V107.44H340.113V108.496H337.521V109.944H340.335V111H336.239ZM346.31 104.939V111H345.203L342.567 107.185H342.522V111H341.241V104.939H342.366L344.982 108.751H345.035V104.939H346.31Z" fill="white"></path>
  <path d="M386.527 111.758V104.182H387.013V111.758H386.527ZM387.815 106.682C387.791 106.444 387.689 106.258 387.51 106.126C387.33 105.994 387.087 105.928 386.779 105.928C386.57 105.928 386.393 105.957 386.249 106.017C386.105 106.074 385.995 106.154 385.918 106.256C385.843 106.359 385.805 106.475 385.805 106.605C385.801 106.714 385.824 106.809 385.873 106.89C385.925 106.97 385.995 107.04 386.083 107.1C386.172 107.157 386.275 107.207 386.391 107.251C386.507 107.292 386.632 107.328 386.764 107.357L387.308 107.487C387.573 107.547 387.815 107.625 388.036 107.724C388.257 107.823 388.449 107.944 388.611 108.088C388.772 108.232 388.898 108.402 388.986 108.597C389.077 108.792 389.124 109.016 389.125 109.269C389.124 109.64 389.029 109.961 388.841 110.234C388.656 110.504 388.388 110.714 388.036 110.864C387.687 111.012 387.266 111.086 386.773 111.086C386.284 111.086 385.857 111.011 385.494 110.861C385.133 110.711 384.851 110.489 384.648 110.195C384.447 109.899 384.341 109.533 384.331 109.097H385.571C385.585 109.3 385.643 109.47 385.746 109.606C385.851 109.74 385.99 109.842 386.163 109.911C386.339 109.978 386.537 110.012 386.758 110.012C386.975 110.012 387.163 109.98 387.323 109.917C387.485 109.854 387.61 109.766 387.699 109.654C387.788 109.541 387.832 109.412 387.832 109.266C387.832 109.13 387.792 109.015 387.711 108.923C387.632 108.83 387.516 108.751 387.362 108.686C387.21 108.621 387.023 108.562 386.802 108.508L386.143 108.343C385.632 108.218 385.228 108.024 384.932 107.76C384.636 107.495 384.489 107.139 384.491 106.691C384.489 106.324 384.587 106.004 384.784 105.73C384.983 105.455 385.257 105.241 385.604 105.087C385.951 104.933 386.346 104.857 386.788 104.857C387.237 104.857 387.63 104.933 387.965 105.087C388.303 105.241 388.565 105.455 388.753 105.73C388.94 106.004 389.037 106.321 389.043 106.682H387.815ZM392.488 104.939V111H391.206V106.156H391.171L389.783 107.026V105.889L391.283 104.939H392.488ZM393.827 111V110.077L395.985 108.079C396.168 107.902 396.322 107.742 396.446 107.6C396.573 107.458 396.668 107.319 396.733 107.183C396.799 107.044 396.831 106.895 396.831 106.736C396.831 106.558 396.791 106.405 396.71 106.277C396.629 106.147 396.518 106.047 396.378 105.978C396.238 105.907 396.079 105.872 395.902 105.872C395.716 105.872 395.555 105.909 395.417 105.984C395.278 106.059 395.172 106.167 395.097 106.307C395.022 106.447 394.985 106.613 394.985 106.807H393.768C393.768 106.41 393.858 106.066 394.038 105.774C394.217 105.482 394.469 105.256 394.792 105.096C395.116 104.936 395.489 104.857 395.911 104.857C396.345 104.857 396.723 104.933 397.044 105.087C397.368 105.239 397.619 105.45 397.799 105.721C397.978 105.991 398.068 106.301 398.068 106.65C398.068 106.879 398.023 107.105 397.932 107.328C397.843 107.55 397.684 107.798 397.456 108.07C397.227 108.341 396.904 108.665 396.488 109.044L395.603 109.911V109.952H398.148V111H393.827ZM401.352 111.133C400.843 111.131 400.405 111.006 400.038 110.757C399.673 110.509 399.392 110.149 399.195 109.677C398.999 109.206 398.903 108.638 398.905 107.976C398.905 107.315 399.002 106.751 399.198 106.286C399.395 105.82 399.676 105.466 400.041 105.223C400.408 104.979 400.845 104.857 401.352 104.857C401.859 104.857 402.295 104.979 402.66 105.223C403.027 105.468 403.309 105.823 403.506 106.289C403.704 106.752 403.801 107.315 403.799 107.976C403.799 108.64 403.701 109.209 403.503 109.68C403.308 110.152 403.028 110.512 402.663 110.76C402.298 111.009 401.861 111.133 401.352 111.133ZM401.352 110.071C401.699 110.071 401.976 109.896 402.184 109.547C402.391 109.198 402.493 108.674 402.491 107.976C402.491 107.516 402.444 107.133 402.349 106.827C402.257 106.522 402.124 106.292 401.953 106.138C401.783 105.984 401.583 105.907 401.352 105.907C401.007 105.907 400.731 106.08 400.523 106.425C400.316 106.77 400.212 107.287 400.21 107.976C400.21 108.441 400.256 108.83 400.349 109.142C400.443 109.451 400.577 109.684 400.748 109.84C400.92 109.994 401.121 110.071 401.352 110.071ZM406.989 111.133C406.48 111.131 406.042 111.006 405.675 110.757C405.31 110.509 405.028 110.149 404.831 109.677C404.636 109.206 404.539 108.638 404.541 107.976C404.541 107.315 404.639 106.751 404.834 106.286C405.031 105.82 405.313 105.466 405.678 105.223C406.044 104.979 406.481 104.857 406.989 104.857C407.496 104.857 407.932 104.979 408.297 105.223C408.663 105.468 408.946 105.823 409.143 106.289C409.34 106.752 409.438 107.315 409.436 107.976C409.436 108.64 409.337 109.209 409.14 109.68C408.945 110.152 408.664 110.512 408.299 110.76C407.934 111.009 407.497 111.133 406.989 111.133ZM406.989 110.071C407.336 110.071 407.613 109.896 407.82 109.547C408.027 109.198 408.13 108.674 408.128 107.976C408.128 107.516 408.08 107.133 407.986 106.827C407.893 106.522 407.761 106.292 407.589 106.138C407.42 105.984 407.219 105.907 406.989 105.907C406.643 105.907 406.367 106.08 406.16 106.425C405.953 106.77 405.848 107.287 405.846 107.976C405.846 108.441 405.893 108.83 405.985 109.142C406.08 109.451 406.213 109.684 406.385 109.84C406.556 109.994 406.758 110.071 406.989 110.071ZM415.164 106.396H415.721V109.444C415.721 109.759 415.647 110.04 415.499 110.287C415.352 110.533 415.145 110.727 414.876 110.87C414.608 111.01 414.293 111.081 413.932 111.081C413.571 111.081 413.256 111.01 412.988 110.87C412.72 110.727 412.512 110.533 412.363 110.287C412.216 110.04 412.143 109.759 412.143 109.444V106.396H412.7V109.4C412.7 109.624 412.75 109.824 412.849 110C412.948 110.174 413.088 110.311 413.271 110.411C413.456 110.51 413.676 110.559 413.932 110.559C414.188 110.559 414.409 110.51 414.593 110.411C414.777 110.311 414.918 110.174 415.016 110C415.115 109.824 415.164 109.624 415.164 109.4V106.396ZM419.252 107.547C419.225 107.319 419.115 107.143 418.923 107.017C418.732 106.891 418.496 106.828 418.218 106.828C418.014 106.828 417.835 106.861 417.683 106.927C417.531 106.993 417.413 107.083 417.327 107.199C417.243 107.314 417.202 107.445 417.202 107.592C417.202 107.715 417.231 107.821 417.289 107.909C417.349 107.996 417.426 108.069 417.518 108.127C417.611 108.184 417.709 108.231 417.811 108.269C417.913 108.305 418.006 108.334 418.092 108.357L418.559 108.482C418.679 108.514 418.812 108.557 418.959 108.613C419.108 108.668 419.249 108.744 419.384 108.84C419.521 108.934 419.633 109.056 419.721 109.204C419.81 109.352 419.854 109.534 419.854 109.75C419.854 109.999 419.789 110.224 419.658 110.425C419.53 110.625 419.341 110.785 419.092 110.903C418.845 111.022 418.544 111.081 418.191 111.081C417.861 111.081 417.575 111.028 417.334 110.921C417.094 110.815 416.906 110.667 416.768 110.476C416.631 110.286 416.554 110.065 416.536 109.813H417.112C417.127 109.987 417.185 110.131 417.287 110.245C417.39 110.357 417.521 110.441 417.678 110.496C417.837 110.55 418.008 110.577 418.191 110.577C418.403 110.577 418.594 110.543 418.764 110.474C418.933 110.404 419.067 110.306 419.166 110.182C419.265 110.056 419.315 109.909 419.315 109.741C419.315 109.588 419.272 109.464 419.186 109.368C419.101 109.272 418.989 109.194 418.849 109.134C418.71 109.074 418.559 109.022 418.397 108.977L417.831 108.815C417.471 108.712 417.187 108.564 416.977 108.372C416.767 108.18 416.662 107.929 416.662 107.619C416.662 107.361 416.732 107.137 416.871 106.945C417.012 106.752 417.201 106.602 417.438 106.495C417.676 106.387 417.942 106.333 418.236 106.333C418.532 106.333 418.796 106.387 419.027 106.493C419.258 106.598 419.44 106.742 419.575 106.925C419.712 107.107 419.784 107.315 419.791 107.547H419.252ZM422.09 111H420.67V106.396H422.153C422.6 106.396 422.982 106.489 423.3 106.673C423.618 106.856 423.861 107.119 424.03 107.462C424.2 107.804 424.284 108.213 424.284 108.689C424.284 109.169 424.199 109.582 424.028 109.928C423.857 110.272 423.609 110.538 423.282 110.724C422.955 110.908 422.558 111 422.09 111ZM421.227 110.505H422.054C422.435 110.505 422.751 110.432 423.001 110.285C423.251 110.138 423.438 109.929 423.561 109.658C423.683 109.387 423.745 109.064 423.745 108.689C423.745 108.318 423.684 107.998 423.563 107.729C423.441 107.46 423.26 107.253 423.019 107.109C422.778 106.964 422.477 106.891 422.117 106.891H421.227V110.505Z" fill="black"></path>
  <rect x="52" y="192" width="67" height="12" fill="#D9D9D9"></rect>
  <rect x="313" y="192" width="23" height="12" fill="#D9D9D9"></rect>
  <rect x="379" y="192" width="36" height="12" fill="#D9D9D9"></rect>
  <rect x="52" y="208" width="29" height="6" fill="#D9D9D9"></rect>
  <rect width="66" height="66" fill="black"></rect>
  <path d="M33.0276 30.1268H26.3359V33.2233H33.0276V30.1268Z" fill="white"></path>
  <path d="M39.7159 35.2899H26.3359V38.3863H39.7159V35.2899Z" fill="white"></path>
  <path d="M39.7159 40.4529H26.3359V43.5494H39.7159V40.4529Z" fill="white"></path>
  <path d="M39.0784 18.75H20.25V21.8221V46.6737V49.7457H45.8045V25.7327L39.0784 18.75ZM39.0784 23.2416L41.4789 25.7327H39.8292L39.0784 24.9742V23.2416V23.2416ZM38.6961 28.8639H39.0784H42.7049V44.3948L40.5076 46.6145H25.5469L23.3496 44.3948V24.1044L25.5469 21.8847H35.9788V25.7361V26.1223L38.6961 28.8639Z" fill="white"></path>
  <rect x="244" y="332" width="23" height="12" fill="#D9D9D9"></rect>
  <rect x="55" y="332" width="23" height="12" fill="#D9D9D9"></rect>
  <rect x="55" y="364" width="23" height="5" fill="#D9D9D9"></rect>
  <rect x="244" y="364" width="23" height="5" fill="#D9D9D9"></rect>
  <rect x="310" y="364" width="23" height="5" fill="#D9D9D9"></rect>
  <rect x="379" y="364" width="23" height="5" fill="#D9D9D9"></rect>
  <rect x="55" y="396" width="23" height="5" fill="#D9D9D9"></rect>
  <rect x="244" y="396" width="23" height="5" fill="#D9D9D9"></rect>
  <rect x="310" y="396" width="23" height="5" fill="#D9D9D9"></rect>
  <rect x="379" y="396" width="23" height="5" fill="#D9D9D9"></rect>
  <rect x="55" y="372" width="23" height="5" fill="#D9D9D9"></rect>
  <rect x="244" y="372" width="23" height="5" fill="#D9D9D9"></rect>
  <rect x="310" y="372" width="23" height="5" fill="#D9D9D9"></rect>
  <rect x="379" y="372" width="23" height="5" fill="#D9D9D9"></rect>
  <rect x="55" y="404" width="23" height="5" fill="#D9D9D9"></rect>
  <rect x="244" y="404" width="23" height="5" fill="#D9D9D9"></rect>
  <rect x="310" y="404" width="23" height="5" fill="#D9D9D9"></rect>
  <rect x="379" y="404" width="23" height="5" fill="#D9D9D9"></rect>
  <rect x="55" y="380" width="23" height="5" fill="#D9D9D9"></rect>
  <rect x="244" y="380" width="23" height="5" fill="#D9D9D9"></rect>
  <rect x="310" y="380" width="23" height="5" fill="#D9D9D9"></rect>
  <rect x="379" y="380" width="23" height="5" fill="#D9D9D9"></rect>
  <rect x="55" y="412" width="23" height="5" fill="#D9D9D9"></rect>
  <rect x="244" y="412" width="23" height="5" fill="#D9D9D9"></rect>
  <rect x="310" y="412" width="23" height="5" fill="#D9D9D9"></rect>
  <rect x="379" y="412" width="23" height="5" fill="#D9D9D9"></rect>
  <rect x="310" y="332" width="36" height="12" fill="#D9D9D9"></rect>
</svg>
