<?xml version="1.0" encoding="UTF-8"?>
<svg xmlns="http://www.w3.org/2000/svg" width="678" height="454" viewBox="0 0 678 454" fill="none">
  <g clip-path="url(#clip0_834_565856)">
    <rect x="76" width="548" height="426" fill="white"></rect>
    <rect x="53" y="280" width="172" height="175" fill="white"></rect>
    <path d="M95.6045 16.7627H606.687V409.507H95.6045V16.7627Z" fill="#F1F2F2"></path>
    <rect width="134.337" height="183.114" transform="translate(134.192 75.0742)" fill="white"></rect>
    <path d="M174.966 102.121C174.966 100.268 173.752 99.2386 172.187 98.9504C173.587 98.7239 174.575 97.6945 174.575 96.2328C174.575 94.1122 173.175 92.7122 169.902 92.7122H164.137V105.683H170.231C173.258 105.683 174.966 104.365 174.966 102.121ZM169.943 100.062C171.549 100.062 172.331 100.762 172.331 101.853C172.331 102.924 171.549 103.603 169.943 103.603H166.649V100.062H169.943ZM166.649 94.7916H169.737C171.281 94.7916 171.94 95.4916 171.94 96.4592C171.94 97.4269 171.281 98.1063 169.737 98.1063H166.649V94.7916ZM182.077 101.75C182.077 103.212 181.088 104.2 179.791 104.2C179.009 104.2 178.535 103.83 178.535 103.212C178.535 102.306 179.297 102.121 180.368 101.894L182.077 101.524V101.75ZM184.485 99.8562C184.485 97.468 182.941 96.3563 180.594 96.3563C178.185 96.3563 176.765 97.6533 176.456 99.5062L178.7 99.7121C178.906 98.8268 179.462 98.2092 180.491 98.2092C181.541 98.2092 182.077 98.8268 182.077 99.8356V100.042L179.585 100.536C177.527 100.947 176.127 101.668 176.127 103.397C176.127 104.962 177.28 105.909 179.174 105.909C180.512 105.909 181.747 105.353 182.262 104.303C182.488 105.291 183.147 105.888 184.177 105.888C185 105.888 185.494 105.621 185.885 105.312V103.994C185.618 104.118 185.371 104.18 185.124 104.18C184.732 104.18 184.485 103.953 184.485 103.48V99.8562ZM186.397 102.677C186.561 104.9 188.373 105.93 190.741 105.93C193.088 105.93 194.694 104.9 194.694 103.047C194.694 101.339 193.561 100.536 191.647 100.227L189.917 99.9386C189.258 99.8356 188.929 99.5474 188.929 99.0533C188.929 98.4357 189.505 98.0445 190.391 98.0445C191.688 98.0445 192.388 98.5592 192.552 99.5886L194.591 99.5062C194.426 97.4886 192.923 96.3563 190.411 96.3563C188.105 96.3563 186.644 97.5504 186.644 99.2798C186.644 100.968 187.714 101.689 189.65 101.997L191.091 102.244C191.997 102.389 192.408 102.656 192.408 103.274C192.408 103.933 191.667 104.241 190.761 104.241C189.505 104.241 188.682 103.686 188.538 102.594L186.397 102.677ZM196.244 96.6033V105.683H198.714V96.6033H196.244ZM196.202 95.121H198.735V92.7122H196.202V95.121ZM200.252 101.153C200.252 104.036 202.249 105.93 205.049 105.93C207.746 105.93 209.229 104.159 209.434 101.977L207.355 101.791C207.17 103.171 206.408 104.036 205.049 104.036C203.69 104.036 202.743 103.027 202.743 101.153C202.743 99.2592 203.69 98.2504 205.049 98.2504C206.408 98.2504 207.17 99.0945 207.355 100.453L209.434 100.309C209.229 98.1268 207.746 96.3563 205.049 96.3563C202.249 96.3563 200.252 98.271 200.252 101.153Z" fill="black"></path>
    <path d="M164.555 158.325C164.555 162.711 167.606 165.317 171.992 165.762V168.655H174.122V165.794C178.222 165.572 181.273 163.474 181.273 159.755C181.273 156.513 179.366 154.734 175.488 154.034L174.122 153.78V148.218C175.997 148.727 177.236 150.125 177.332 152.318L180.86 152.191C180.796 148.186 178.381 145.612 174.122 145.135V142.465H171.992V145.071C167.701 145.262 165.095 147.582 165.095 151.142C165.095 154.448 167.256 156.196 170.339 156.736L171.992 157.054V162.648C169.863 162.234 168.274 160.741 168.115 158.166L164.555 158.325ZM174.249 157.435C176.347 157.817 177.491 158.484 177.491 160.01C177.491 161.631 176.188 162.584 174.122 162.743V157.435H174.249ZM168.814 150.856C168.814 149.14 169.958 148.186 171.992 148.059V153.367L171.833 153.335C170.022 152.986 168.814 152.413 168.814 150.856ZM190.382 162.076L193.529 159.533C196.58 157.117 199.059 154.861 199.059 151.333C199.059 147.773 196.612 145.04 191.876 145.04C187.458 145.04 184.502 147.741 184.502 151.937C184.502 152.541 184.598 153.176 184.725 153.812L188.634 153.971C188.507 153.43 188.412 152.89 188.412 152.223C188.412 149.903 189.524 148.377 191.749 148.377C193.91 148.377 194.896 149.712 194.896 151.555C194.896 153.971 193.179 155.56 190.064 158.166L184.471 162.775V165.445H199.536V162.076H190.382ZM210.393 162.648C208.264 162.648 207.12 161.472 206.834 159.596L203.115 159.692C203.465 163.569 206.198 165.826 210.33 165.826C216.051 165.826 218.848 161.376 218.848 155.179C218.848 148.949 215.924 145.04 210.457 145.04C205.944 145.04 202.924 147.773 202.924 151.968C202.924 155.878 205.562 158.611 209.917 158.611C212.555 158.611 214.398 157.34 215.224 155.56C215.161 159.724 213.604 162.648 210.393 162.648ZM214.398 151.873C214.398 154.13 213 155.592 210.584 155.592C208.105 155.592 206.707 154.13 206.707 151.873C206.707 149.68 208.105 148.186 210.521 148.186C212.936 148.186 214.398 149.712 214.398 151.873ZM229.451 162.648C227.321 162.648 226.177 161.472 225.891 159.596L222.173 159.692C222.522 163.569 225.256 165.826 229.387 165.826C235.108 165.826 237.905 161.376 237.905 155.179C237.905 148.949 234.981 145.04 229.515 145.04C225.001 145.04 221.982 147.773 221.982 151.968C221.982 155.878 224.62 158.611 228.974 158.611C231.612 158.611 233.456 157.34 234.282 155.56C234.218 159.724 232.661 162.648 229.451 162.648ZM233.456 151.873C233.456 154.13 232.057 155.592 229.642 155.592C227.163 155.592 225.764 154.13 225.764 151.873C225.764 149.68 227.163 148.186 229.578 148.186C231.994 148.186 233.456 149.712 233.456 151.873Z" fill="#2D2D30"></path>
    <rect x="163.378" y="118.254" width="63.1702" height="1.59925" fill="#F1F2F2"></rect>
    <rect x="163.378" y="131.847" width="24.7883" height="1.59925" fill="#F1F2F2"></rect>
    <circle cx="163.804" cy="192.619" r="2.39887" fill="#F1F2F2"></circle>
    <circle cx="163.804" cy="199.816" r="2.39887" fill="#F1F2F2"></circle>
    <circle cx="163.804" cy="207.012" r="2.39887" fill="#F1F2F2"></circle>
    <rect x="163.378" y="113.456" width="79.9623" height="1.59925" fill="#F1F2F2"></rect>
    <rect x="170.575" y="191.819" width="65.569" height="1.59925" fill="#F1F2F2"></rect>
    <rect x="170.575" y="199.016" width="65.569" height="1.59925" fill="#F1F2F2"></rect>
    <rect x="170.575" y="206.212" width="65.569" height="1.59925" fill="#F1F2F2"></rect>
    <path d="M183.775 231.23C183.775 232.213 184.469 232.886 185.376 232.886C186.318 232.886 186.84 232.299 186.896 231.488L186.288 231.463C186.242 231.939 185.959 232.329 185.376 232.329C184.809 232.329 184.434 231.904 184.434 231.23C184.434 230.556 184.809 230.131 185.376 230.131C185.959 230.131 186.242 230.521 186.288 230.997L186.896 230.972C186.84 230.166 186.318 229.574 185.376 229.574C184.469 229.574 183.775 230.247 183.775 231.23ZM187.889 231.63C187.889 231.255 188.081 231.012 188.39 231.012C188.689 231.012 188.826 231.21 188.826 231.554V232.826H189.434V231.433C189.434 230.936 189.216 230.531 188.618 230.531C188.284 230.531 188 230.703 187.889 230.957V229.634H187.281V232.826H187.889V231.63ZM190.403 231.711C190.403 231.286 190.596 230.992 190.966 230.992C191.341 230.992 191.533 231.286 191.533 231.711C191.533 232.132 191.341 232.426 190.966 232.426C190.596 232.426 190.403 232.132 190.403 231.711ZM192.146 231.711C192.146 231.017 191.66 230.531 190.966 230.531C190.277 230.531 189.791 231.017 189.791 231.711C189.791 232.405 190.277 232.886 190.966 232.886C191.66 232.886 192.146 232.405 192.146 231.711ZM193.025 231.711C193.025 231.286 193.218 230.992 193.588 230.992C193.962 230.992 194.155 231.286 194.155 231.711C194.155 232.132 193.962 232.426 193.588 232.426C193.218 232.426 193.025 232.132 193.025 231.711ZM194.768 231.711C194.768 231.017 194.281 230.531 193.588 230.531C192.899 230.531 192.412 231.017 192.412 231.711C192.412 232.405 192.899 232.886 193.588 232.886C194.281 232.886 194.768 232.405 194.768 231.711ZM194.994 232.086C195.034 232.633 195.48 232.886 196.063 232.886C196.64 232.886 197.035 232.633 197.035 232.177C197.035 231.757 196.757 231.559 196.286 231.483L195.86 231.412C195.698 231.387 195.617 231.316 195.617 231.195C195.617 231.043 195.759 230.946 195.977 230.946C196.296 230.946 196.468 231.073 196.508 231.326L197.01 231.306C196.969 230.81 196.6 230.531 195.982 230.531C195.414 230.531 195.055 230.825 195.055 231.25C195.055 231.666 195.318 231.843 195.794 231.919L196.149 231.98C196.372 232.015 196.473 232.081 196.473 232.233C196.473 232.395 196.291 232.471 196.068 232.471C195.759 232.471 195.556 232.334 195.521 232.066L194.994 232.086ZM199.058 232.046C198.972 232.299 198.794 232.426 198.495 232.426C198.166 232.426 197.908 232.193 197.888 231.863H199.564V231.645C199.564 231.038 199.189 230.531 198.46 230.531C197.791 230.531 197.29 231.038 197.29 231.742C197.29 232.446 197.786 232.886 198.475 232.886C199.048 232.886 199.433 232.593 199.549 232.096L199.058 232.046ZM197.898 231.483C197.953 231.205 198.121 230.977 198.455 230.977C198.794 230.977 198.951 231.225 198.972 231.483H197.898ZM201.513 231.21V230.146H202.136C202.612 230.146 202.82 230.339 202.82 230.683C202.82 231.027 202.612 231.21 202.136 231.21H201.513ZM201.513 231.726H202.156C202.972 231.726 203.438 231.342 203.438 230.678C203.438 230.014 202.972 229.634 202.156 229.634H200.885V232.826H201.513V231.726ZM203.768 229.634V232.826H204.376V229.634H203.768ZM206.229 231.858C206.229 232.218 205.985 232.461 205.666 232.461C205.474 232.461 205.357 232.37 205.357 232.218C205.357 231.995 205.545 231.949 205.808 231.894L206.229 231.802V231.858ZM206.821 231.392C206.821 230.805 206.441 230.531 205.864 230.531C205.271 230.531 204.922 230.85 204.846 231.306L205.398 231.357C205.448 231.139 205.585 230.987 205.838 230.987C206.097 230.987 206.229 231.139 206.229 231.387V231.438L205.616 231.559C205.109 231.661 204.765 231.838 204.765 232.263C204.765 232.648 205.048 232.881 205.514 232.881C205.844 232.881 206.147 232.745 206.274 232.486C206.33 232.729 206.492 232.876 206.745 232.876C206.948 232.876 207.069 232.81 207.166 232.735V232.41C207.1 232.441 207.039 232.456 206.978 232.456C206.882 232.456 206.821 232.4 206.821 232.284V231.392ZM208.061 231.63C208.061 231.255 208.254 231.012 208.563 231.012C208.862 231.012 208.998 231.21 208.998 231.554V232.826H209.606V231.433C209.606 230.936 209.389 230.531 208.791 230.531C208.456 230.531 208.173 230.703 208.061 230.957V230.592H207.454V232.826H208.061V231.63Z" fill="black"></path>
    <path d="M215.039 233.092L215.46 233.527L217.839 231.092L217.839 230.559L215.46 228.124L215.039 228.538L216.563 230.119L216.261 230.531L212.773 230.531L212.773 231.145L216.221 231.145L216.569 231.549L215.039 233.092Z" fill="black"></path>
    <rect x="163.191" y="219.217" width="75.542" height="23.2167" stroke="black" stroke-width="0.422122"></rect>
    <rect width="135.136" height="183.114" transform="translate(284.522 75.0742)" fill="white"></rect>
    <path d="M317.42 99.1148V94.7914H319.952C321.887 94.7914 322.731 95.5737 322.731 96.9737C322.731 98.3737 321.887 99.1148 319.952 99.1148H317.42ZM317.42 101.215H320.034C323.349 101.215 325.243 99.6501 325.243 96.9531C325.243 94.2561 323.349 92.712 320.034 92.712H314.867V105.682H317.42V101.215ZM332.866 96.7266C332.598 96.5002 332.145 96.356 331.589 96.356C330.333 96.356 329.386 97.3031 329.057 98.3325V96.6031H326.586V105.682H329.057V101.194C329.057 99.5472 329.921 98.6413 331.198 98.6413C331.795 98.6413 332.207 98.7648 332.68 99.0325L332.866 96.7266ZM340.454 102.512C340.104 103.541 339.383 104.056 338.169 104.056C336.831 104.056 335.781 103.109 335.698 101.771H342.513V100.885C342.513 98.4148 340.989 96.356 338.025 96.356C335.307 96.356 333.269 98.4148 333.269 101.277C333.269 104.138 335.286 105.929 338.086 105.929C340.413 105.929 341.977 104.735 342.451 102.718L340.454 102.512ZM335.739 100.227C335.966 99.0942 336.645 98.1678 338.004 98.1678C339.383 98.1678 340.022 99.1766 340.104 100.227H335.739ZM352.333 98.2295C351.942 97.1178 351.036 96.356 349.43 96.356C348.051 96.356 347.022 97.056 346.569 98.0854V96.6031H344.098V105.682H346.569V100.824C346.569 99.3001 347.289 98.3119 348.483 98.3119C349.677 98.3119 350.13 99.1148 350.13 100.515V105.682H352.601V100.824C352.601 99.3001 353.321 98.3119 354.516 98.3119C355.73 98.3119 356.163 99.1148 356.163 100.515V105.682H358.633V100.021C358.633 98.0442 357.851 96.356 355.401 96.356C353.918 96.356 352.827 97.159 352.333 98.2295ZM360.605 96.6031V105.682H363.075V96.6031H360.605ZM360.563 95.1208H363.096V92.712H360.563V95.1208ZM371.201 101.462C371.201 103.006 370.46 103.994 369.245 103.994C368.031 103.994 367.516 103.171 367.516 101.791V96.6031H365.045V102.285C365.045 104.303 365.869 105.929 368.278 105.929C369.657 105.929 370.728 105.25 371.201 104.2V105.682H373.672V96.6031H371.201V101.462ZM383.999 98.2295C383.608 97.1178 382.702 96.356 381.096 96.356C379.717 96.356 378.688 97.056 378.235 98.0854V96.6031H375.764V105.682H378.235V100.824C378.235 99.3001 378.955 98.3119 380.149 98.3119C381.343 98.3119 381.796 99.1148 381.796 100.515V105.682H384.267V100.824C384.267 99.3001 384.987 98.3119 386.182 98.3119C387.396 98.3119 387.829 99.1148 387.829 100.515V105.682H390.299V100.021C390.299 98.0442 389.517 96.356 387.067 96.356C385.585 96.356 384.493 97.159 383.999 98.2295Z" fill="black"></path>
    <path d="M315.284 158.325C315.284 162.711 318.336 165.317 322.722 165.762V168.654H324.851V165.794C328.951 165.571 332.002 163.474 332.002 159.755C332.002 156.513 330.095 154.733 326.218 154.034L324.851 153.78V148.218C326.726 148.726 327.966 150.125 328.061 152.318L331.589 152.191C331.526 148.186 329.11 145.612 324.851 145.135V142.465H322.722V145.071C318.431 145.262 315.825 147.582 315.825 151.142C315.825 154.447 317.986 156.195 321.069 156.736L322.722 157.054V162.647C320.592 162.234 319.003 160.74 318.844 158.166L315.284 158.325ZM324.978 157.435C327.076 157.816 328.22 158.484 328.22 160.009C328.22 161.63 326.917 162.584 324.851 162.743V157.435H324.978ZM319.543 150.856C319.543 149.139 320.688 148.186 322.722 148.059V153.367L322.563 153.335C320.751 152.985 319.543 152.413 319.543 150.856ZM348.867 145.421H336.757C336.662 148.726 335.963 153.907 335.454 156.672L339.332 156.958C339.968 155.878 341.08 154.988 342.86 154.988C345.18 154.988 346.515 156.64 346.515 158.802C346.515 161.154 345.085 162.616 342.828 162.616C340.349 162.616 339.014 161.09 339.014 158.674L335.137 158.388C334.978 162.902 337.743 165.826 342.796 165.826C347.182 165.826 350.265 163.061 350.265 158.77C350.265 154.988 347.945 151.936 343.337 151.936C341.334 151.936 339.968 152.667 339.141 153.494C339.332 152.604 339.682 149.934 339.713 148.949H348.867V145.421ZM361.123 162.647C358.993 162.647 357.849 161.471 357.563 159.596L353.845 159.692C354.194 163.569 356.927 165.826 361.059 165.826C366.78 165.826 369.577 161.376 369.577 155.178C369.577 148.949 366.653 145.039 361.186 145.039C356.673 145.039 353.654 147.773 353.654 151.968C353.654 155.878 356.292 158.611 360.646 158.611C363.284 158.611 365.128 157.34 365.954 155.56C365.89 159.723 364.333 162.647 361.123 162.647ZM365.128 151.873C365.128 154.129 363.729 155.592 361.314 155.592C358.834 155.592 357.436 154.129 357.436 151.873C357.436 149.68 358.834 148.186 361.25 148.186C363.666 148.186 365.128 149.712 365.128 151.873ZM380.18 162.647C378.051 162.647 376.907 161.471 376.621 159.596L372.902 159.692C373.252 163.569 375.985 165.826 380.117 165.826C385.838 165.826 388.635 161.376 388.635 155.178C388.635 148.949 385.711 145.039 380.244 145.039C375.731 145.039 372.711 147.773 372.711 151.968C372.711 155.878 375.349 158.611 379.704 158.611C382.342 158.611 384.185 157.34 385.012 155.56C384.948 159.723 383.391 162.647 380.18 162.647ZM384.185 151.873C384.185 154.129 382.787 155.592 380.371 155.592C377.892 155.592 376.494 154.129 376.494 151.873C376.494 149.68 377.892 148.186 380.308 148.186C382.723 148.186 384.185 149.712 384.185 151.873Z" fill="#2D2D30"></path>
    <rect x="314.108" y="118.254" width="63.1702" height="1.59925" fill="#F1F2F2"></rect>
    <rect x="314.108" y="131.848" width="24.7883" height="1.59925" fill="#F1F2F2"></rect>
    <circle cx="314.534" cy="192.619" r="2.39887" fill="#F1F2F2"></circle>
    <circle cx="314.534" cy="199.816" r="2.39887" fill="#F1F2F2"></circle>
    <circle cx="314.534" cy="207.012" r="2.39887" fill="#F1F2F2"></circle>
    <rect x="314.108" y="113.456" width="79.9623" height="1.59925" fill="#F1F2F2"></rect>
    <rect x="321.305" y="191.819" width="65.569" height="1.59925" fill="#F1F2F2"></rect>
    <rect x="321.305" y="199.016" width="65.569" height="1.59925" fill="#F1F2F2"></rect>
    <rect x="321.305" y="206.212" width="65.569" height="1.59925" fill="#F1F2F2"></rect>
    <path d="M334.904 231.23C334.904 232.213 335.598 232.886 336.505 232.886C337.447 232.886 337.969 232.299 338.025 231.488L337.417 231.463C337.371 231.939 337.088 232.329 336.505 232.329C335.938 232.329 335.563 231.904 335.563 231.23C335.563 230.556 335.938 230.131 336.505 230.131C337.088 230.131 337.371 230.521 337.417 230.997L338.025 230.972C337.969 230.166 337.447 229.574 336.505 229.574C335.598 229.574 334.904 230.247 334.904 231.23ZM339.017 231.63C339.017 231.255 339.21 231.012 339.519 231.012C339.818 231.012 339.955 231.21 339.955 231.554V232.826H340.562V231.433C340.562 230.936 340.345 230.531 339.747 230.531C339.413 230.531 339.129 230.703 339.017 230.957V229.634H338.41V232.826H339.017V231.63ZM341.532 231.711C341.532 231.286 341.725 230.992 342.095 230.992C342.469 230.992 342.662 231.286 342.662 231.711C342.662 232.132 342.469 232.426 342.095 232.426C341.725 232.426 341.532 232.132 341.532 231.711ZM343.275 231.711C343.275 231.017 342.789 230.531 342.095 230.531C341.406 230.531 340.919 231.017 340.919 231.711C340.919 232.405 341.406 232.886 342.095 232.886C342.789 232.886 343.275 232.405 343.275 231.711ZM344.154 231.711C344.154 231.286 344.347 230.992 344.716 230.992C345.091 230.992 345.284 231.286 345.284 231.711C345.284 232.132 345.091 232.426 344.716 232.426C344.347 232.426 344.154 232.132 344.154 231.711ZM345.897 231.711C345.897 231.017 345.41 230.531 344.716 230.531C344.028 230.531 343.541 231.017 343.541 231.711C343.541 232.405 344.028 232.886 344.716 232.886C345.41 232.886 345.897 232.405 345.897 231.711ZM346.123 232.086C346.163 232.633 346.609 232.886 347.192 232.886C347.769 232.886 348.164 232.633 348.164 232.177C348.164 231.757 347.886 231.559 347.414 231.483L346.989 231.412C346.827 231.387 346.746 231.316 346.746 231.195C346.746 231.043 346.888 230.946 347.105 230.946C347.425 230.946 347.597 231.073 347.637 231.326L348.139 231.306C348.098 230.81 347.728 230.531 347.11 230.531C346.543 230.531 346.184 230.825 346.184 231.25C346.184 231.666 346.447 231.843 346.923 231.919L347.278 231.98C347.501 232.015 347.602 232.081 347.602 232.233C347.602 232.395 347.419 232.471 347.197 232.471C346.888 232.471 346.685 232.334 346.65 232.066L346.123 232.086ZM350.187 232.046C350.1 232.299 349.923 232.426 349.624 232.426C349.295 232.426 349.037 232.193 349.016 231.863H350.693V231.645C350.693 231.038 350.318 230.531 349.589 230.531C348.92 230.531 348.419 231.038 348.419 231.742C348.419 232.446 348.915 232.886 349.604 232.886C350.176 232.886 350.561 232.593 350.678 232.096L350.187 232.046ZM349.027 231.483C349.082 231.205 349.249 230.977 349.584 230.977C349.923 230.977 350.08 231.225 350.1 231.483H349.027ZM352.642 231.21V230.146H353.265C353.741 230.146 353.949 230.339 353.949 230.683C353.949 231.027 353.741 231.21 353.265 231.21H352.642ZM352.642 231.726H353.285C354.101 231.726 354.567 231.342 354.567 230.678C354.567 230.014 354.101 229.634 353.285 229.634H352.014V232.826H352.642V231.726ZM354.897 229.634V232.826H355.505V229.634H354.897ZM357.357 231.858C357.357 232.218 357.114 232.461 356.795 232.461C356.603 232.461 356.486 232.37 356.486 232.218C356.486 231.995 356.674 231.949 356.937 231.894L357.357 231.802V231.858ZM357.95 231.392C357.95 230.805 357.57 230.531 356.993 230.531C356.4 230.531 356.051 230.85 355.975 231.306L356.527 231.357C356.577 231.139 356.714 230.987 356.967 230.987C357.226 230.987 357.357 231.139 357.357 231.387V231.438L356.744 231.559C356.238 231.661 355.893 231.838 355.893 232.263C355.893 232.648 356.177 232.881 356.643 232.881C356.972 232.881 357.276 232.745 357.403 232.486C357.459 232.729 357.621 232.876 357.874 232.876C358.077 232.876 358.198 232.81 358.295 232.735V232.41C358.229 232.441 358.168 232.456 358.107 232.456C358.011 232.456 357.95 232.4 357.95 232.284V231.392ZM359.19 231.63C359.19 231.255 359.383 231.012 359.692 231.012C359.991 231.012 360.127 231.21 360.127 231.554V232.826H360.735V231.433C360.735 230.936 360.517 230.531 359.92 230.531C359.585 230.531 359.302 230.703 359.19 230.957V230.592H358.582V232.826H359.19V231.63Z" fill="black"></path>
    <path d="M366.168 233.092L366.589 233.527L368.968 231.092L368.968 230.559L366.589 228.124L366.168 228.538L367.692 230.119L367.39 230.531L363.902 230.531L363.902 231.145L367.35 231.145L367.698 231.549L366.168 233.092Z" fill="black"></path>
    <rect x="314.319" y="219.217" width="75.542" height="23.2167" stroke="black" stroke-width="0.422122"></rect>
    <rect width="134.337" height="183.114" transform="translate(438.05 75.0742)" fill="white"></rect>
    <path d="M470.547 99.1148V94.7914H473.079C475.014 94.7914 475.858 95.5737 475.858 96.9737C475.858 98.3737 475.014 99.1148 473.079 99.1148H470.547ZM470.547 101.215H473.161C476.476 101.215 478.37 99.6501 478.37 96.9531C478.37 94.2561 476.476 92.712 473.161 92.712H467.994V105.682H470.547V101.215ZM479.713 92.712V105.682H482.184V92.712H479.713ZM490.31 101.462C490.31 103.006 489.569 103.994 488.354 103.994C487.139 103.994 486.625 103.171 486.625 101.791V96.6031H484.154V102.285C484.154 104.303 484.978 105.929 487.386 105.929C488.766 105.929 489.836 105.25 490.31 104.2V105.682H492.78V96.6031H490.31V101.462ZM494.214 102.677C494.379 104.9 496.19 105.929 498.558 105.929C500.905 105.929 502.511 104.9 502.511 103.047C502.511 101.338 501.378 100.535 499.464 100.227L497.734 99.9383C497.076 99.8354 496.746 99.5472 496.746 99.0531C496.746 98.4354 497.323 98.0442 498.208 98.0442C499.505 98.0442 500.205 98.5589 500.37 99.5883L502.408 99.506C502.243 97.4884 500.74 96.356 498.229 96.356C495.923 96.356 494.461 97.5501 494.461 99.2795C494.461 100.968 495.531 101.688 497.467 101.997L498.908 102.244C499.814 102.388 500.226 102.656 500.226 103.274C500.226 103.932 499.484 104.241 498.578 104.241C497.323 104.241 496.499 103.685 496.355 102.594L494.214 102.677Z" fill="black"></path>
    <path d="M468.087 158.554C468.087 162.94 471.138 165.546 475.524 165.991V168.883H477.654V166.023C481.754 165.8 484.805 163.703 484.805 159.984C484.805 156.742 482.898 154.962 479.021 154.263L477.654 154.009V148.447C479.529 148.955 480.769 150.354 480.864 152.547L484.392 152.419C484.328 148.415 481.913 145.84 477.654 145.364V142.694H475.524V145.3C471.234 145.491 468.627 147.811 468.627 151.371C468.627 154.676 470.789 156.424 473.872 156.964L475.524 157.282V162.876C473.395 162.463 471.806 160.969 471.647 158.395L468.087 158.554ZM477.781 157.664C479.879 158.045 481.023 158.713 481.023 160.238C481.023 161.859 479.72 162.813 477.654 162.972V157.664H477.781ZM472.346 151.085C472.346 149.368 473.49 148.415 475.524 148.288V153.595L475.365 153.564C473.554 153.214 472.346 152.642 472.346 151.085ZM494.868 162.876C492.739 162.876 491.594 161.7 491.308 159.825L487.59 159.92C487.939 163.798 490.673 166.054 494.804 166.054C500.525 166.054 503.322 161.605 503.322 155.407C503.322 149.178 500.398 145.268 494.932 145.268C490.418 145.268 487.399 148.002 487.399 152.197C487.399 156.106 490.037 158.84 494.391 158.84C497.029 158.84 498.873 157.568 499.699 155.788C499.636 159.952 498.078 162.876 494.868 162.876ZM498.873 152.102C498.873 154.358 497.474 155.82 495.059 155.82C492.58 155.82 491.181 154.358 491.181 152.102C491.181 149.909 492.58 148.415 494.995 148.415C497.411 148.415 498.873 149.94 498.873 152.102ZM513.926 162.876C511.796 162.876 510.652 161.7 510.366 159.825L506.647 159.92C506.997 163.798 509.73 166.054 513.862 166.054C519.583 166.054 522.38 161.605 522.38 155.407C522.38 149.178 519.456 145.268 513.989 145.268C509.476 145.268 506.457 148.002 506.457 152.197C506.457 156.106 509.095 158.84 513.449 158.84C516.087 158.84 517.93 157.568 518.757 155.788C518.693 159.952 517.136 162.876 513.926 162.876ZM517.93 152.102C517.93 154.358 516.532 155.82 514.116 155.82C511.637 155.82 510.239 154.358 510.239 152.102C510.239 149.909 511.637 148.415 514.053 148.415C516.468 148.415 517.93 149.94 517.93 152.102ZM532.983 162.876C530.854 162.876 529.71 161.7 529.423 159.825L525.705 159.92C526.054 163.798 528.788 166.054 532.92 166.054C538.641 166.054 541.438 161.605 541.438 155.407C541.438 149.178 538.513 145.268 533.047 145.268C528.534 145.268 525.514 148.002 525.514 152.197C525.514 156.106 528.152 158.84 532.506 158.84C535.144 158.84 536.988 157.568 537.814 155.788C537.751 159.952 536.193 162.876 532.983 162.876ZM536.988 152.102C536.988 154.358 535.589 155.82 533.174 155.82C530.695 155.82 529.296 154.358 529.296 152.102C529.296 149.909 530.695 148.415 533.11 148.415C535.526 148.415 536.988 149.94 536.988 152.102Z" fill="#2D2D30"></path>
    <rect x="467.235" y="118.254" width="63.1702" height="1.59925" fill="#F1F2F2"></rect>
    <rect x="467.235" y="131.848" width="24.7883" height="1.59925" fill="#F1F2F2"></rect>
    <circle cx="467.662" cy="192.619" r="2.39887" fill="#F1F2F2"></circle>
    <circle cx="467.662" cy="199.816" r="2.39887" fill="#F1F2F2"></circle>
    <circle cx="467.662" cy="207.012" r="2.39887" fill="#F1F2F2"></circle>
    <rect x="467.235" y="113.456" width="79.9623" height="1.59925" fill="#F1F2F2"></rect>
    <rect x="474.433" y="191.819" width="65.569" height="1.59925" fill="#F1F2F2"></rect>
    <rect x="474.433" y="199.016" width="65.569" height="1.59925" fill="#F1F2F2"></rect>
    <rect x="474.433" y="206.212" width="65.569" height="1.59925" fill="#F1F2F2"></rect>
    <path d="M487.632 231.23C487.632 232.213 488.326 232.886 489.233 232.886C490.175 232.886 490.696 232.299 490.752 231.488L490.144 231.463C490.099 231.939 489.815 232.329 489.233 232.329C488.665 232.329 488.29 231.904 488.29 231.23C488.29 230.556 488.665 230.131 489.233 230.131C489.815 230.131 490.099 230.521 490.144 230.997L490.752 230.972C490.696 230.166 490.175 229.574 489.233 229.574C488.326 229.574 487.632 230.247 487.632 231.23ZM491.745 231.63C491.745 231.255 491.937 231.012 492.246 231.012C492.545 231.012 492.682 231.21 492.682 231.554V232.826H493.29V231.433C493.29 230.936 493.072 230.531 492.474 230.531C492.14 230.531 491.856 230.703 491.745 230.957V229.634H491.137V232.826H491.745V231.63ZM494.26 231.711C494.26 231.286 494.452 230.992 494.822 230.992C495.197 230.992 495.39 231.286 495.39 231.711C495.39 232.132 495.197 232.426 494.822 232.426C494.452 232.426 494.26 232.132 494.26 231.711ZM496.002 231.711C496.002 231.017 495.516 230.531 494.822 230.531C494.133 230.531 493.647 231.017 493.647 231.711C493.647 232.405 494.133 232.886 494.822 232.886C495.516 232.886 496.002 232.405 496.002 231.711ZM496.882 231.711C496.882 231.286 497.074 230.992 497.444 230.992C497.819 230.992 498.011 231.286 498.011 231.711C498.011 232.132 497.819 232.426 497.444 232.426C497.074 232.426 496.882 232.132 496.882 231.711ZM498.624 231.711C498.624 231.017 498.138 230.531 497.444 230.531C496.755 230.531 496.269 231.017 496.269 231.711C496.269 232.405 496.755 232.886 497.444 232.886C498.138 232.886 498.624 232.405 498.624 231.711ZM498.85 232.086C498.891 232.633 499.337 232.886 499.919 232.886C500.497 232.886 500.892 232.633 500.892 232.177C500.892 231.757 500.613 231.559 500.142 231.483L499.716 231.412C499.554 231.387 499.473 231.316 499.473 231.195C499.473 231.043 499.615 230.946 499.833 230.946C500.152 230.946 500.324 231.073 500.365 231.326L500.866 231.306C500.826 230.81 500.456 230.531 499.838 230.531C499.271 230.531 498.911 230.825 498.911 231.25C498.911 231.666 499.174 231.843 499.651 231.919L500.005 231.98C500.228 232.015 500.329 232.081 500.329 232.233C500.329 232.395 500.147 232.471 499.924 232.471C499.615 232.471 499.413 232.334 499.377 232.066L498.85 232.086ZM502.914 232.046C502.828 232.299 502.651 232.426 502.352 232.426C502.023 232.426 501.764 232.193 501.744 231.863H503.421V231.645C503.421 231.038 503.046 230.531 502.316 230.531C501.648 230.531 501.146 231.038 501.146 231.742C501.146 232.446 501.643 232.886 502.332 232.886C502.904 232.886 503.289 232.593 503.405 232.096L502.914 232.046ZM501.754 231.483C501.81 231.205 501.977 230.977 502.311 230.977C502.651 230.977 502.808 231.225 502.828 231.483H501.754ZM505.369 231.21V230.146H505.992C506.468 230.146 506.676 230.339 506.676 230.683C506.676 231.027 506.468 231.21 505.992 231.21H505.369ZM505.369 231.726H506.013C506.828 231.726 507.294 231.342 507.294 230.678C507.294 230.014 506.828 229.634 506.013 229.634H504.741V232.826H505.369V231.726ZM507.625 229.634V232.826H508.232V229.634H507.625ZM510.085 231.858C510.085 232.218 509.842 232.461 509.523 232.461C509.33 232.461 509.214 232.37 509.214 232.218C509.214 231.995 509.401 231.949 509.665 231.894L510.085 231.802V231.858ZM510.678 231.392C510.678 230.805 510.298 230.531 509.72 230.531C509.128 230.531 508.778 230.85 508.702 231.306L509.254 231.357C509.305 231.139 509.442 230.987 509.695 230.987C509.953 230.987 510.085 231.139 510.085 231.387V231.438L509.472 231.559C508.965 231.661 508.621 231.838 508.621 232.263C508.621 232.648 508.905 232.881 509.371 232.881C509.7 232.881 510.004 232.745 510.131 232.486C510.186 232.729 510.348 232.876 510.602 232.876C510.804 232.876 510.926 232.81 511.022 232.735V232.41C510.956 232.441 510.895 232.456 510.835 232.456C510.738 232.456 510.678 232.4 510.678 232.284V231.392ZM511.918 231.63C511.918 231.255 512.11 231.012 512.419 231.012C512.718 231.012 512.855 231.21 512.855 231.554V232.826H513.463V231.433C513.463 230.936 513.245 230.531 512.647 230.531C512.313 230.531 512.029 230.703 511.918 230.957V230.592H511.31V232.826H511.918V231.63Z" fill="black"></path>
    <path d="M518.896 233.092L519.317 233.527L521.695 231.092L521.695 230.559L519.317 228.124L518.896 228.538L520.419 230.119L520.117 230.531L516.63 230.531L516.63 231.145L520.078 231.145L520.425 231.549L518.896 233.092Z" fill="black"></path>
    <rect x="467.047" y="219.217" width="75.542" height="23.2167" stroke="black" stroke-width="0.422122"></rect>
    <rect x="277.712" y="314.546" width="53.0974" height="53.0974" fill="#BFEE56"></rect>
    <path d="M304.844 348.453C303.782 348.453 302.747 348.243 301.771 347.827C300.827 347.425 299.976 346.849 299.244 346.117C298.513 345.386 297.936 344.535 297.535 343.59C297.377 343.22 297.248 342.84 297.15 342.452L299.034 343.244L299.868 341.259L294.749 339.107L292.598 344.226L294.582 345.061L295.223 343.533C295.318 343.837 295.431 344.135 295.555 344.432C296.067 345.63 296.796 346.71 297.724 347.638C298.651 348.566 299.73 349.295 300.93 349.806C302.173 350.335 303.49 350.605 304.844 350.605C306.921 350.605 308.92 349.974 310.627 348.778C312.334 347.583 313.613 345.919 314.323 343.968L312.303 343.229C311.165 346.354 308.167 348.453 304.844 348.453Z" fill="black"></path>
    <path d="M315.251 335.973L314.527 337.697C314.417 337.326 314.285 336.96 314.132 336.599C313.621 335.401 312.892 334.321 311.964 333.393C311.036 332.465 309.958 331.736 308.758 331.225C307.515 330.696 306.197 330.426 304.844 330.426C302.766 330.426 300.768 331.057 299.061 332.253C297.353 333.448 296.074 335.112 295.364 337.063L297.387 337.799C298.523 334.677 301.521 332.578 304.844 332.578C305.906 332.578 306.941 332.788 307.916 333.204C308.861 333.606 309.712 334.182 310.443 334.914C311.175 335.645 311.751 336.496 312.153 337.441C312.301 337.792 312.425 338.148 312.521 338.512L310.8 337.787L309.965 339.772L315.084 341.924L317.236 336.805L315.251 335.973Z" fill="black"></path>
    <path d="M307.295 340.75C306.848 340.357 306.236 340.149 305.75 340.013L305.444 339.707V337.952L305.722 337.675C306.147 337.916 306.398 338.328 306.412 338.808L306.415 338.877H307.742V338.806C307.742 337.567 306.97 336.616 305.724 336.314L305.447 336.037V334.758H304.263V336.037L304.005 336.295C302.757 336.568 301.954 337.462 301.954 338.579C301.954 339.999 302.955 340.503 303.943 340.805L304.265 341.127V343.375L304.077 343.564C303.472 343.305 303.113 342.772 303.113 342.131V342.06H301.834V342.131C301.834 343.418 302.673 344.477 303.976 344.835L304.265 345.125V346.268H305.449V345.125L305.669 344.905C307.07 344.656 308.007 343.674 308.007 342.454C308.002 341.725 307.77 341.168 307.295 340.75ZM304.261 339.325L304.046 339.54C303.467 339.313 303.218 339.023 303.218 338.581C303.218 338.158 303.472 337.804 303.916 337.608L304.261 337.952V339.325ZM306.711 342.457C306.711 343.002 306.334 343.439 305.7 343.633L305.444 343.377V341.567L305.702 341.309C306.408 341.574 306.711 341.919 306.711 342.457Z" fill="black"></path>
    <rect x="358.566" y="314.546" width="53.0974" height="53.0974" fill="#BFEE56"></rect>
    <path d="M394.459 343.844H386.246V345.972H394.459V343.844Z" fill="black"></path>
    <path d="M384.095 343.844H375.883V345.971H384.095V343.844Z" fill="black"></path>
    <path d="M371.756 330.536V349.854H398.584V337.795V335.643V330.536H371.756ZM396.434 346.177L394.909 347.702H375.435L373.91 346.177V339.299L375.414 337.795H394.93L396.434 339.299V346.177ZM396.434 335.091L395.882 335.643H374.515L373.91 335.038V333.345L374.57 332.686H395.829L396.434 333.29V335.091Z" fill="black"></path>
    <rect x="439.299" y="314.546" width="53.0974" height="53.0974" fill="#BFEE56"></rect>
    <path d="M460.048 339.021H453.093V341.149H460.048V339.021Z" fill="black"></path>
    <path d="M480.032 339.021H473.077V341.149H480.032V339.021Z" fill="black"></path>
    <path d="M466.562 337.852C467.793 337.852 468.795 338.854 468.795 340.085C468.795 341.316 467.793 342.318 466.562 342.318C465.33 342.318 464.329 341.316 464.329 340.085C464.329 338.854 465.33 337.852 466.562 337.852ZM466.562 335.7C464.14 335.7 462.177 337.663 462.177 340.085C462.177 342.507 464.14 344.47 466.562 344.47C468.984 344.47 470.946 342.507 470.946 340.085C470.946 337.663 468.984 335.7 466.562 335.7Z" fill="black"></path>
    <path d="M448.662 330.426V349.744H484.463V330.426H448.662ZM452.339 332.578H480.786L482.311 334.103V346.067L480.786 347.592H452.339L450.814 346.067V334.103L452.339 332.578Z" fill="black"></path>
    <rect x="519.29" y="314.546" width="53.0974" height="53.0974" fill="#BFEE56"></rect>
    <path d="M536.264 327.96V352.228H556.453V327.96H536.264ZM552.313 349.791H540.215L538.694 348.267V331.724L540.024 330.392H552.559L554.023 331.857V347.986L552.313 349.791Z" fill="black"></path>
    <path d="M551.678 332.824H541.106V335.25H551.678V332.824Z" fill="black"></path>
    <path d="M551.678 336.868H541.106V339.293H551.678V336.868Z" fill="black"></path>
    <path d="M551.678 340.91H541.106V343.335H551.678V340.91Z" fill="black"></path>
    <path d="M551.678 344.953H541.106V347.378H551.678V344.953Z" fill="black"></path>
    <rect x="67" y="297" width="142" height="142" fill="black"></rect>
    <path d="M163.218 381.184C163.218 368.775 154.588 364.717 145.522 362.18L142.815 359.469V344.994L145.494 342.311C149.249 344.275 151.547 347.811 151.673 352.061H161.119C161.119 342.955 155.607 335.103 145.306 332.675L142.819 330.165V320.278H134.499V330.165L132.145 332.522C122.593 334.557 116.062 341.337 116.062 350.234C116.062 361.04 123.421 365 131.659 367.518L134.495 370.354V388.781L132.561 390.721C127.43 388.671 124.17 384.275 124.17 378.615H115.108C115.108 388.899 121.86 396.991 131.918 399.701L134.495 402.286V411.065H142.819V402.278L144.859 400.231C155.643 398.389 163.218 390.93 163.218 381.184ZM154.058 381.184C154.058 386.015 150.578 389.704 145.259 391.224L142.819 388.773V373.846L145.31 371.352C150.359 373.19 154.042 375.83 154.042 381.184H154.058ZM125.049 350.23C125.049 346.389 127.45 343.364 131.325 341.785L134.515 344.978V356.409L132.365 358.562C128.034 356.932 125.033 354.622 125.033 350.23H125.049Z" fill="white"></path>
  </g>
  <defs>
    <clipPath id="clip0_834_565856">
      <rect width="678" height="454" fill="white"></rect>
    </clipPath>
  </defs>
</svg>
