<?xml version="1.0" encoding="UTF-8"?>
<svg xmlns="http://www.w3.org/2000/svg" width="128" height="128" viewBox="0 0 128 128" fill="none">
  <style>@media (prefers-color-scheme: light) { :root { filter: none; } }
@media (prefers-color-scheme: dark) { :root { filter: invert(100%); } }
</style>
  <path d="M37.7592 0L31.712 6.03783L51.0632 25.1927V41.4118L49.077 43.2231L21.6869 16.0473L15.8116 21.9135L43.0298 49.261L41.3876 51.0723H25.3152L5.96403 31.7457L0 37.7004L21.8589 59.5253H59.5349V21.57L37.7592 0Z" fill="black"></path>
  <path d="M90.2407 0L96.288 6.03783L76.9368 25.1927V41.4118L78.9229 43.2231L106.313 16.0473L112.188 21.9135L84.9702 49.261L86.6124 51.0723H102.685L122.036 31.7457L128 37.7004L106.141 59.5253H68.4651V21.57L90.2407 0Z" fill="black"></path>
  <path d="M37.7592 127.99L31.712 121.951L51.0632 102.793V86.5715L49.077 84.7599L21.6869 111.94L15.8116 106.073L43.0298 78.721L41.3876 76.9094H25.3152L5.96403 96.2391L0 90.2834L21.8589 68.4551H59.5349V106.416L37.7592 127.99Z" fill="black"></path>
  <path d="M90.2407 127.98L96.288 121.943L76.9368 102.788V86.5686L78.9229 84.7572L106.313 111.933L112.188 106.067L84.9702 78.7194L86.6124 76.908H102.685L122.036 96.2347L128 90.2799L106.141 68.4551H68.4651V106.41L90.2407 127.98Z" fill="black"></path>
</svg>
