<?xml version="1.0" encoding="UTF-8"?>
<svg xmlns="http://www.w3.org/2000/svg" width="80" height="81" viewBox="0 0 80 81" fill="none">
  <path d="M23.5452 0L19.7743 3.77082L31.841 15.7337V25.863L30.6025 26.9943L13.5231 10.0221L9.85949 13.6857L26.8317 30.7651L25.8077 31.8963H15.7856L3.71893 19.8262L0 23.5452L13.6303 37.1755H37.1236V13.4712L23.5452 0Z" fill="white"></path>
  <path d="M56.4554 0L60.2262 3.77082L48.1596 15.7337V25.863L49.3981 26.9943L66.4775 10.0221L70.141 13.6857L53.1689 30.7651L54.1929 31.8963H64.215L76.2816 19.8262L80.0005 23.5452L66.3702 37.1755H42.877V13.4712L56.4554 0Z" fill="white"></path>
  <path d="M23.5452 80.131L19.7743 76.3602L31.841 64.3973V54.268L30.6025 53.1368L13.5231 70.1089L9.85949 66.4453L26.8317 49.3659L25.8077 48.2347H15.7856L3.71893 60.3048L0 56.5859L13.6303 42.9555H37.1236V66.6598L23.5452 80.131Z" fill="white"></path>
  <path d="M56.4554 80.133L60.2262 76.3622L48.1596 64.3993V54.27L49.3981 53.1387L66.4775 70.1109L70.141 66.4473L53.1689 49.3679L54.1929 48.2367H64.215L76.2816 60.3068L80.0005 56.5878L66.3702 42.9575H42.877V66.6618L56.4554 80.133Z" fill="white"></path>
</svg>
