<?xml version="1.0" encoding="UTF-8"?>
<svg xmlns="http://www.w3.org/2000/svg" width="678" height="454" viewBox="0 0 678 454" fill="none">
  <rect x="39.1172" y="126.901" width="106.116" height="62.3566" fill="white"></rect>
  <rect x="1.92188" y="95.1763" width="138.935" height="177.224" fill="white"></rect>
  <rect x="69" width="609" height="454" fill="white"></rect>
  <rect x="93.8145" y="17.5039" width="566.68" height="420.087" fill="#F1F2F2"></rect>
  <rect x="93.8145" y="17.5039" width="566.68" height="13.1277" fill="black"></rect>
  <g clip-path="url(#clip0_767_470581)">
    <path d="M198.683 51.1892C194.777 51.1892 191.866 54.2209 191.866 58.272C191.866 62.2506 194.777 65.2808 198.683 65.2808C202.612 65.2808 205.499 62.2491 205.499 58.272C205.499 54.1968 202.564 51.1892 198.683 51.1892ZM198.683 63.9242C195.554 63.9242 193.322 61.5467 193.322 58.272C193.322 54.8517 195.554 52.5232 198.683 52.5232C201.788 52.5232 204.044 54.8517 204.044 58.272C204.044 61.5467 201.788 63.9242 198.683 63.9242Z" fill="black"></path>
    <path d="M189.175 51.4563H187.768V64.9428H189.175V51.4563Z" fill="black"></path>
    <path d="M184.709 52.3783L183.641 51.4563L178.79 57.0594H178.402L173.526 51.4563L172.483 52.3783L177.432 58.0056V58.4176L172.483 63.9974L173.526 64.9428L178.402 59.3879H178.79L183.569 64.9428L184.636 64.0457L179.76 58.4176V58.0056L184.709 52.3783Z" fill="black"></path>
    <path d="M164.53 51.4562L159.34 64.9427H160.795L162.014 61.7451L162.918 61.0131H167.757L168.535 61.6696L169.768 64.9403H171.297L166.13 51.4539L164.53 51.4562ZM162.949 59.299L165.115 53.6141H165.504L167.669 59.3574L167.373 59.6541H163.323L162.949 59.299Z" fill="black"></path>
    <path d="M150.194 63.2692H149.805L145.27 51.4563H142.796V64.9428H144.202V53.615H144.591L148.981 64.9428H151.019L155.312 53.615H155.7V64.9428H157.107V51.4563H154.633L150.194 63.2692Z" fill="black"></path>
    <path d="M122.958 49.1956L122.11 50.0444L124.826 52.7373V55.0175L124.547 55.2722L120.702 51.4516L119.878 52.2763L123.698 56.121L123.468 56.3757H121.212L118.495 53.6586L117.658 54.4958L120.726 57.5641H126.015V52.228L122.958 49.1956Z" fill="black"></path>
    <path d="M130.365 49.1953L131.214 50.0442L128.498 52.7371V55.0173L128.777 55.2719L132.621 51.4514L133.446 52.2761L129.625 56.1208L129.856 56.3754H132.112L134.828 53.6584L135.665 54.4955L132.597 57.5638H127.309V52.2278L130.365 49.1953Z" fill="black"></path>
    <path d="M122.958 67.2342L122.11 66.3854L124.826 63.6924V61.4123L124.547 61.1576L120.702 64.9782L119.878 64.1535L123.698 60.3088L123.468 60.0541H121.212L118.495 62.7712L117.658 61.934L120.726 58.8657H126.015V64.2018L122.958 67.2342Z" fill="black"></path>
    <path d="M130.365 67.2342L131.214 66.3854L128.498 63.6924V61.4123L128.777 61.1576L132.621 64.9782L133.446 64.1535L129.625 60.3088L129.856 60.0541H132.112L134.828 62.7712L135.665 61.934L132.597 58.8657H127.309V64.2018L130.365 67.2342Z" fill="black"></path>
  </g>
  <rect x="127.729" y="87.5186" width="498.853" height="326.005" fill="white"></rect>
  <rect x="206.496" y="281.726" width="40.1791" height="40.1791" fill="#FF6FFF"></rect>
  <path d="M236.387 298.524L237.213 298.301L235.065 296.153L234.277 299.089L234.675 298.982L236.387 298.524Z" fill="black"></path>
  <path d="M239.372 306.565C239.372 304.899 239.041 303.279 238.389 301.747C238.111 301.096 237.782 300.473 237.4 299.881L235.791 300.312C236.246 300.95 236.63 301.636 236.94 302.362C237.302 303.213 237.551 304.096 237.684 305.001L236.909 305.776H229.859C229.851 305.743 229.842 305.711 229.831 305.678L233.702 300.415L233.103 299.817L227.838 303.687C227.559 303.601 227.261 303.554 226.953 303.554C225.566 303.554 224.395 304.497 224.049 305.776H216.963L216.217 305.031C216.349 304.116 216.599 303.223 216.966 302.362C217.516 301.073 218.301 299.911 219.302 298.912C220.303 297.911 221.463 297.126 222.752 296.576C224.087 296.008 225.501 295.719 226.953 295.719C228.405 295.719 229.819 296.008 231.154 296.576C231.819 296.86 232.451 297.206 233.042 297.612L233.471 296.011C232.93 295.675 232.361 295.38 231.77 295.128C230.239 294.475 228.617 294.144 226.951 294.144C225.286 294.144 223.666 294.475 222.133 295.128C220.66 295.757 219.332 296.657 218.187 297.799C217.043 298.942 216.147 300.27 215.517 301.747C214.865 303.277 214.534 304.899 214.534 306.565V307.352H224.049C224.395 308.631 225.567 309.574 226.953 309.574C228.339 309.574 229.511 308.631 229.858 307.352H239.37V306.565H239.372ZM227.968 307.578C227.924 307.622 227.877 307.664 227.826 307.702C227.816 307.709 227.805 307.718 227.795 307.725C227.688 307.802 227.571 307.865 227.447 307.912C227.424 307.921 227.403 307.928 227.38 307.935C227.335 307.949 227.289 307.961 227.242 307.97C227.149 307.989 227.051 308 226.953 308C226.453 308 226.01 307.743 225.755 307.352C225.737 307.326 225.72 307.298 225.704 307.27C225.702 307.268 225.702 307.267 225.7 307.265C225.693 307.253 225.686 307.24 225.679 307.226C225.678 307.221 225.674 307.218 225.672 307.212C225.653 307.174 225.636 307.135 225.62 307.095C225.616 307.088 225.615 307.081 225.611 307.072C225.608 307.062 225.602 307.051 225.599 307.039C225.595 307.03 225.592 307.022 225.59 307.011C225.587 307.001 225.583 306.992 225.58 306.981C225.574 306.964 225.569 306.946 225.564 306.927C225.562 306.918 225.56 306.91 225.557 306.903C225.553 306.89 225.552 306.878 225.548 306.864C225.546 306.855 225.545 306.848 225.543 306.84C225.539 306.824 225.538 306.808 225.534 306.792C225.534 306.787 225.532 306.782 225.531 306.777C225.527 306.756 225.525 306.735 225.522 306.714C225.522 306.707 225.52 306.701 225.52 306.694C225.518 306.679 225.517 306.663 225.517 306.646C225.517 306.639 225.517 306.633 225.515 306.626C225.513 306.604 225.513 306.583 225.513 306.56C225.513 306.537 225.513 306.516 225.515 306.493C225.515 306.486 225.515 306.479 225.517 306.472C225.517 306.458 225.518 306.444 225.52 306.43C225.52 306.423 225.522 306.416 225.522 306.408C225.524 306.394 225.525 306.378 225.527 306.364C225.527 306.359 225.529 306.352 225.529 306.346C225.532 306.327 225.536 306.308 225.539 306.289C225.541 306.282 225.543 306.273 225.545 306.266C225.546 306.254 225.55 306.243 225.552 306.231C225.553 306.222 225.555 306.213 225.559 306.205C225.56 306.194 225.564 306.184 225.567 306.175C225.571 306.166 225.573 306.156 225.576 306.147C225.58 306.138 225.581 306.128 225.585 306.119C225.59 306.101 225.597 306.082 225.604 306.065C225.608 306.058 225.609 306.051 225.613 306.042C225.616 306.031 225.622 306.021 225.627 306.009C225.63 306.002 225.632 305.995 225.636 305.988C225.641 305.977 225.646 305.965 225.65 305.954C225.653 305.949 225.655 305.942 225.658 305.937C225.664 305.925 225.669 305.914 225.676 305.902C225.676 305.9 225.678 305.9 225.678 305.898C225.692 305.872 225.706 305.846 225.721 305.821C225.723 305.818 225.725 305.814 225.728 305.811C225.735 305.8 225.742 305.788 225.749 305.778C225.804 305.694 225.865 305.617 225.935 305.547C225.937 305.545 225.938 305.543 225.94 305.541C226.201 305.281 226.559 305.12 226.955 305.12C227.455 305.12 227.898 305.377 228.153 305.767C228.171 305.793 228.188 305.821 228.204 305.849C228.206 305.851 228.206 305.853 228.208 305.855C228.215 305.867 228.222 305.879 228.229 305.893C228.23 305.898 228.234 305.902 228.236 305.907C228.243 305.919 228.248 305.932 228.255 305.946C228.267 305.972 228.278 305.998 228.288 306.024C228.292 306.031 228.293 306.038 228.297 306.047C228.3 306.058 228.306 306.068 228.309 306.08C228.313 306.089 228.316 306.098 228.318 306.108C228.321 306.119 228.325 306.128 228.328 306.138C228.334 306.156 228.339 306.173 228.344 306.192C228.346 306.201 228.348 306.21 228.351 306.217C228.355 306.229 228.356 306.241 228.36 306.255C228.362 306.264 228.363 306.271 228.365 306.28C228.369 306.296 228.37 306.311 228.374 306.327C228.374 306.332 228.376 306.338 228.377 306.343C228.381 306.364 228.383 306.385 228.386 306.406C228.386 306.413 228.388 306.418 228.388 306.425C228.39 306.441 228.391 306.457 228.391 306.474C228.391 306.481 228.391 306.486 228.393 306.493C228.395 306.516 228.395 306.537 228.395 306.56C228.395 306.583 228.395 306.604 228.393 306.626C228.393 306.633 228.393 306.639 228.391 306.646C228.39 306.661 228.39 306.677 228.388 306.694C228.388 306.701 228.386 306.707 228.386 306.714C228.384 306.735 228.381 306.756 228.377 306.777C228.377 306.782 228.376 306.787 228.374 306.792C228.372 306.808 228.369 306.824 228.365 306.84C228.363 306.848 228.362 306.855 228.36 306.864C228.356 306.876 228.355 306.889 228.351 306.903C228.349 306.911 228.348 306.92 228.344 306.927C228.339 306.945 228.334 306.964 228.328 306.981C228.325 306.992 228.321 307.001 228.318 307.011C228.314 307.02 228.311 307.03 228.309 307.039C228.306 307.05 228.302 307.06 228.297 307.072C228.293 307.079 228.292 307.086 228.288 307.095C228.278 307.121 228.267 307.148 228.255 307.174C228.25 307.186 228.243 307.198 228.236 307.212C228.234 307.218 228.23 307.221 228.229 307.226C228.222 307.239 228.215 307.251 228.208 307.265C228.206 307.267 228.206 307.268 228.204 307.272C228.188 307.3 228.171 307.328 228.153 307.354C228.099 307.433 228.036 307.51 227.968 307.578Z" fill="black"></path>
  <rect x="206.496" y="227.667" width="40.1791" height="40.1791" fill="#FF6FFF"></rect>
  <path d="M232.065 250.887C232.065 248.091 230.1 247.177 228.035 246.605L227.418 245.994V242.733L228.029 242.128C228.884 242.571 229.407 243.367 229.436 244.325H231.587C231.587 242.274 230.332 240.504 227.986 239.957L227.419 239.392V237.164H225.524V239.392L224.988 239.923C222.812 240.381 221.325 241.909 221.325 243.914C221.325 246.348 223.001 247.24 224.877 247.808L225.523 248.447V252.598L225.083 253.036C223.914 252.574 223.171 251.583 223.171 250.308H221.107C221.107 252.625 222.645 254.448 224.936 255.059L225.523 255.641V257.619H227.419V255.639L227.884 255.178C230.34 254.763 232.065 253.082 232.065 250.887ZM229.979 250.887C229.979 251.975 229.186 252.806 227.975 253.149L227.419 252.597V249.233L227.987 248.671C229.136 249.086 229.975 249.68 229.975 250.887H229.979ZM223.372 243.913C223.372 243.047 223.918 242.366 224.801 242.01L225.528 242.729V245.305L225.038 245.79C224.052 245.423 223.368 244.902 223.368 243.913H223.372Z" fill="black"></path>
  <rect x="206.496" y="335.055" width="40.1791" height="40.1791" fill="#FF6FFF"></rect>
  <path d="M235.331 348.204H218.426V350.441H235.331V348.204Z" fill="black"></path>
  <path d="M235.331 360.451H218.426V362.688H235.331V360.451Z" fill="black"></path>
  <path d="M235.331 354.327H218.426V356.564H235.331V354.327Z" fill="black"></path>
  <rect x="214.472" y="166.468" width="37.4131" height="21.0449" rx="10.5224" fill="#D9D9D9"></rect>
  <rect x="216.343" y="167.403" width="33.6718" height="19.1742" rx="9.58712" fill="#620093"></rect>
  <circle cx="242.065" cy="176.757" r="10.7563" fill="#A7A7A7"></circle>
  <rect x="457.067" y="135.621" width="34.3719" height="9.21121" fill="#F1F2F2"></rect>
  <rect x="294.54" y="232.682" width="47.3775" height="6.69906" fill="#F1F2F2"></rect>
  <rect x="206.496" y="110.611" width="47.3775" height="6.69906" fill="#F1F2F2"></rect>
  <rect x="206.496" y="128.874" width="47.3775" height="6.69906" fill="#F1F2F2"></rect>
  <rect x="357.466" y="233.016" width="141.123" height="6.56386" fill="#F1F2F2"></rect>
  <rect x="295.129" y="110.611" width="138.961" height="81.6274" fill="#F1F2F2"></rect>
  <rect x="506.127" y="135.621" width="34.3719" height="9.21121" fill="#F1F2F2"></rect>
  <rect x="457.067" y="158.997" width="34.3719" height="9.21121" fill="#F1F2F2"></rect>
  <rect x="294.54" y="258.641" width="47.3775" height="6.69906" fill="#F1F2F2"></rect>
  <rect x="294.54" y="339.031" width="47.3775" height="6.69906" fill="#F1F2F2"></rect>
  <rect x="357.466" y="258.178" width="141.123" height="7.65783" fill="#F1F2F2"></rect>
  <rect x="357.466" y="339.133" width="141.123" height="6.56386" fill="#F1F2F2"></rect>
  <rect x="457.067" y="181.548" width="34.3719" height="9.21121" fill="#F1F2F2"></rect>
  <rect x="294.54" y="284.6" width="47.3775" height="6.69906" fill="#F1F2F2"></rect>
  <rect x="294.54" y="364.989" width="47.3775" height="6.69906" fill="#F1F2F2"></rect>
  <rect x="294.54" y="313.071" width="47.3775" height="6.69906" fill="#F1F2F2"></rect>
  <rect x="357.466" y="284.434" width="141.123" height="6.56386" fill="#F1F2F2"></rect>
  <rect x="357.466" y="365.388" width="141.123" height="6.56386" fill="#F1F2F2"></rect>
  <rect x="357.466" y="312.878" width="141.123" height="6.56386" fill="#F1F2F2"></rect>
  <rect x="506.127" y="158.997" width="34.3719" height="9.21121" fill="#F1F2F2"></rect>
  <rect x="506.127" y="181.548" width="34.3719" height="9.21121" fill="#F1F2F2"></rect>
  <rect x="541.253" y="230.171" width="50.1644" height="11.7234" fill="#D9D9D9"></rect>
  <rect x="541.253" y="256.13" width="50.1644" height="11.7234" fill="#D9D9D9"></rect>
  <rect x="541.253" y="336.518" width="50.1644" height="11.7234" fill="#D9D9D9"></rect>
  <rect x="541.253" y="282.089" width="50.1644" height="11.7234" fill="#D9D9D9"></rect>
  <rect x="541.253" y="362.477" width="50.1644" height="11.7234" fill="#D9D9D9"></rect>
  <rect x="541.253" y="310.559" width="50.1644" height="11.7234" fill="#D9D9D9"></rect>
  <rect x="308.77" y="187.302" width="20.0972" height="14.8635" transform="rotate(-90 308.77 187.302)" fill="#620093"></rect>
  <rect x="331.993" y="187.302" width="32.6579" height="14.8635" transform="rotate(-90 331.993 187.302)" fill="#620093"></rect>
  <rect x="355.218" y="187.302" width="25.1215" height="14.8635" transform="rotate(-90 355.218 187.302)" fill="#620093"></rect>
  <rect x="378.44" y="187.302" width="44.3813" height="14.8635" transform="rotate(-90 378.44 187.302)" fill="#620093"></rect>
  <rect x="401.667" y="187.302" width="54.4298" height="14.8635" transform="rotate(-90 401.667 187.302)" fill="#620093"></rect>
  <rect x="20" y="113" width="142.217" height="142.217" fill="black"></rect>
  <path d="M107.405 184.638V180.931C110.753 177.634 113.044 173.414 113.989 168.808C114.934 164.201 114.489 159.417 112.711 155.065C110.933 150.713 107.902 146.989 104.005 144.369C100.107 141.748 95.5186 140.348 90.8243 140.348C86.13 140.348 81.5418 141.748 77.6442 144.369C73.7463 146.989 70.7155 150.713 68.9374 155.065C67.1592 159.417 66.7143 164.201 67.6592 168.808C68.6042 173.414 70.8963 177.634 74.2434 180.931V184.638L57.1963 207.668V228.96H124.327V207.668L107.405 184.638ZM90.8264 149.541C93.5407 149.541 96.1942 150.347 98.4511 151.858C100.708 153.368 102.467 155.515 103.506 158.027C104.545 160.539 104.817 163.303 104.288 165.97C103.758 168.637 102.452 171.087 100.533 173.009C98.6138 174.932 96.1687 176.242 93.5068 176.773C90.8447 177.304 88.0854 177.032 85.5774 175.993C83.0694 174.953 80.9258 173.191 79.4172 170.931C77.9084 168.67 77.1029 166.013 77.1021 163.294C77.1055 159.648 78.5523 156.153 81.1253 153.574C83.6983 150.996 87.1872 149.545 90.8264 149.541ZM86.0551 186.22H86.337V186.189H95.1513V186.22H95.4375L114.146 210.927V213.135L107.54 219.813H73.5842L67.5113 213.678V210.927L86.0551 186.22Z" fill="white"></path>
  <defs>
    <clipPath id="clip0_767_470581">
      <rect width="87.842" height="18.0383" fill="white" transform="translate(117.658 49.1956)"></rect>
    </clipPath>
  </defs>
</svg>
